<svg xmlns="http://www.w3.org/2000/svg" viewBox="0 0 285.02 435.43"><defs><style>.aadc602d-0550-4925-a99f-970e07d3f449{fill:#8666ac;}</style></defs><title>fa-w-left</title><g id="e72c9b0a-a699-41dc-9f66-f9ca6e0ee4d2" data-name="Layer 2"><g id="f93c2825-5d58-4f54-af64-5abaea1022e3" data-name="W"><path class="aadc602d-0550-4925-a99f-970e07d3f449" d="M110.77,219.37,285,118.76V0L0,164.56l102.85,59.38,7.92,4.57Zm0,150.43L285,269.2V150.43L0,315l102.85,59.38,7.92,4.57Zm137.17,17.65c-.91,0-1.57-.7-1.57-2.15s.66-2.14,1.57-2.14,1.52.87,2,2.14C249.46,386.56,249,387.45,247.94,387.45Zm5.89-3.89c.87,0,1.36.76,1.36,1.74s-.49,1.75-1.34,1.75-1.28-.68-1.75-1.75C252.59,384.24,253,383.56,253.83,383.56ZM285,345l-9.75,5.63H219.43a12.21,12.21,0,0,0-10.63,6.21L190,390.21l18.78,33.37a12.19,12.19,0,0,0,10.63,6.21h55.84l9.75,5.64Zm-26,34v-2.57h9.49l-.76-2.37,2.26-.61,1.53,4.69V379Zm-14.76,6.3c0-2.73,1.37-4.7,3.57-4.7a3.38,3.38,0,0,1,3.15,2.47,3.29,3.29,0,0,1,2.94-1.9c2.14,0,3.32,1.82,3.32,4.13s-1.18,4.14-3.32,4.14a3.28,3.28,0,0,1-2.94-1.9,3.37,3.37,0,0,1-3.15,2.45C245.65,390,244.28,388,244.28,385.3Zm-15.73,5.25,10.21,5.08v-5.37h2.31v8.8h-.68l-11.84-5.73Zm-14,11.61a5.07,5.07,0,0,1,2.85-4.65l1.25,1.79a3.16,3.16,0,0,0-1.73,2.79,2,2,0,0,0,1.94,2.23c1.19,0,1.8-.89,1.8-2.56v-2.92h6.64v7.25H225v-4.78h-2.28a7.27,7.27,0,0,1,.15,1.42,4,4,0,0,1-4,4.23C216.3,407,214.56,404.82,214.56,402.16Z"/></g></g></svg>