<svg xmlns="http://www.w3.org/2000/svg" viewBox="0 0 339.86 332.67"><defs><style>.b372e6b0-da54-4871-aed3-ffc5ed4ec111,.b9f449a8-7443-4903-87b5-b1a78110820f,.e4fb98a4-e956-439e-b78c-933fa9376b74{fill:#2d2d2c;}.b372e6b0-da54-4871-aed3-ffc5ed4ec111,.b9f449a8-7443-4903-87b5-b1a78110820f{stroke:#000;stroke-miterlimit:10;}.b9f449a8-7443-4903-87b5-b1a78110820f{stroke-width:3px;}.b372e6b0-da54-4871-aed3-ffc5ed4ec111{stroke-width:0.75px;}</style></defs><title>illustration</title><g id="faba32c6-86d0-4232-8ca9-12bc2a38ff1d" data-name="Layer 2"><g id="b3d6b27c-a55f-4f38-bfb7-3d95bac1a0b5" data-name="Doodles"><path class="b9f449a8-7443-4903-87b5-b1a78110820f" d="M1.56,237a11.29,11.29,0,0,0,0,1.84,19.66,19.66,0,0,0,.21,2c.19,1.26.47,2.49.73,3.73.1.64.19,1.28.32,1.91a6.64,6.64,0,0,0,.41,1.31,9.55,9.55,0,0,0,.51,1c.29.45.62.87.9,1.33s.57,1,.83,1.47c.73,1.55,1.4,3.14,2.1,4.71.51,1.14,1,2.27,1.54,3.41s1.1,2.48,1.75,3.67a15.84,15.84,0,0,0,2.38,3.2A21.87,21.87,0,0,0,16.05,269c.5.38,1,.77,1.44,1.19s.93.87,1.38,1.33c.89.88,1.83,1.71,2.79,2.53a19.35,19.35,0,0,0,1.72,1.25L25,276.36c1,.64,1.91,1.28,2.85,1.93a29.08,29.08,0,0,0,3.54,2.26,18.37,18.37,0,0,0,1.91.88c.71.28,1.42.54,2.13.79,2.13.8,4.18,1.82,6.3,2.65,1.13.44,2.27.87,3.4,1.33s2.26,1,3.39,1.48,2.38,1,3.58,1.45l1.65.65,2.12.76c2.3.83,4.68,1.4,7,2a31.25,31.25,0,0,0,3.72.83c1.16.18,2.34.26,3.51.37,1.33.12,2.66.26,4,.43.66.09,1.31.17,2,.21l1.52.06,0,.22a28.56,28.56,0,0,0,.06,3.7l.15,2a21.31,21.31,0,0,0,.27,2.39,2.64,2.64,0,0,0,.3.91,2.11,2.11,0,0,0,.36.43,1.66,1.66,0,0,0,.77.36,1.94,1.94,0,0,0,.72,0,3.35,3.35,0,0,0,.92-.27l.64-.31,1.53-.77c1-.54,2-1.05,3.06-1.56l0,0c.66-.31,1.3-.64,1.94-1a22.34,22.34,0,0,0,2-1.31c1.35-.95,2.65-2,4-2.95,1.92-1.44,3.87-2.88,5.76-4.36l6.53-5.12c.93-.74,1.87-1.46,2.84-2.15.28-.2.55-.42.85-.61l.71-.45c.24-.16.5-.3.72-.48a2.73,2.73,0,0,0,.87-1,1.47,1.47,0,0,0,.16-.77c0-.14,0-.27-.07-.4a1.23,1.23,0,0,0-.24-.5,2.93,2.93,0,0,0-.4-.46c-.18-.13-.36-.27-.54-.38-.59-.36-1.23-.65-1.85-.95s-1-.55-1.53-.83-1.1-.61-1.64-.93-.9-.58-1.35-.88a28.24,28.24,0,0,1-2.41-2c-.39-.36-.78-.72-1.15-1.1s-.66-.71-1-1.07l-.56-.7c-.21-.25-.39-.52-.59-.78l-1-1.39c-.43-.59-.87-1.16-1.32-1.73s-.83-1-1.24-1.47l-1.23-1.42L91,260.26l.12.15-2.67-3.2c-.82-1-1.58-2-2.35-3.09-.38-.51-.73-1-1.09-1.56-.15-.22-.27-.47-.42-.7s-.15-.25-.24-.38a3.21,3.21,0,0,0-.39-.52,2.63,2.63,0,0,0-.53-.4,1.42,1.42,0,0,0-1.09-.08,1.64,1.64,0,0,0-.64.44,2.26,2.26,0,0,0-.49,1.05c-.09.37-.15.74-.21,1.12-.1.6-.19,1.2-.27,1.81-.15,1.31-.27,2.61-.36,3.92s-.17,2.54-.26,3.82c-.06.74-.13,1.48-.19,2.23s-.13,1.52-.24,2.27l-.45,2.8c-.06.38-.14.75-.22,1.13s-.19,1-.33,1.45c-.59-.08-1.19-.18-1.79-.24-.79-.08-1.57-.13-2.36-.18-1.14-.11-2.27-.24-3.41-.38s-2.33-.3-3.5-.5-2.26-.42-3.39-.69-2.11-.59-3.14-.95c-2.07-.78-4.14-1.56-6.18-2.41-1-.43-2-.88-3.07-1.34S49.93,265,49,264.48c-1.1-.55-2.21-1.09-3.3-1.68l-3.51-1.93c-.55-.3-1.11-.59-1.65-.91l-2-1.19c-.22-.13-.45-.25-.66-.39l-.59-.41-1.6-1.1a26.32,26.32,0,0,1-2.47-2,29.46,29.46,0,0,1-2.12-2.21c-.69-.81-1.32-1.66-2-2.5-.15-.2-.31-.39-.44-.6l-.81-1.21-.69-1c-.2-.3-.36-.62-.54-.93s-.38-.61-.54-.93-.28-.58-.43-.87c-.38-.87-.73-1.75-1.06-2.64s-.57-1.69-.82-2.54c-.52-1.78-1-3.55-1.48-5.35-.06-.4-.11-.81-.14-1.22a7.69,7.69,0,0,1,0-1.07c.21-1.56.59-3.1.93-4.63a.8.8,0,0,0-.45-.89,1.85,1.85,0,0,0,0-.23,1.48,1.48,0,0,0,0-.21,1.4,1.4,0,0,0-.22-.65,1.32,1.32,0,0,0-1.51-.53,1.45,1.45,0,0,0-.44.24l-.18.15-.2.17c-.25.2-.49.41-.73.62a5.11,5.11,0,0,0-1,1.15,4.72,4.72,0,0,0-.49.88,19.91,19.91,0,0,0-1.11,3.72c-.24,1.21-.43,2.43-.66,3.64s-.5,2.3-.83,3.44c-.27.93-.53,1.86-.83,2.78l-.31-.18c-.36-.22-.72-.42-1.07-.64-.67-.42-1.34-.83-2-1.27a18.94,18.94,0,0,1-1.57-1.27l-.83-.79c-.19-.19-.37-.4-.55-.6-.39-.48-.77-1-1.13-1.48s-.78-1.07-1.19-1.6l-.47-.6a2.82,2.82,0,0,0-1-.8A1.55,1.55,0,0,0,3.8,232a1.68,1.68,0,0,0-.7.25,1.3,1.3,0,0,0-.41.4,1.94,1.94,0,0,0-.31.54A8.58,8.58,0,0,0,2,234.44c-.06.29-.14.59-.19.88-.1.57-.2,1.14-.26,1.72m2.38,2.56a10.16,10.16,0,0,1,.26-4.19c.47.66.93,1.34,1.4,2A19.88,19.88,0,0,0,8,240.09a35.35,35.35,0,0,0,5.22,3.77,10.72,10.72,0,0,0,.88.62,1.94,1.94,0,0,0,1.59.24,2.13,2.13,0,0,0,1-.68,3.93,3.93,0,0,0,.58-1.09l.27-.74c.09-.27.17-.55.26-.83q.27-.84.51-1.68c.33-1.13.66-2.24.88-3.39s.44-2.48.66-3.71c.1-.57.19-1.16.34-1.71s.29-1,.46-1.53a7.92,7.92,0,0,1,.56-1.13,2.25,2.25,0,0,1,.21-.24l-.21.94c-.13.6-.28,1.21-.37,1.82a17.2,17.2,0,0,0-.18,1.9,10.25,10.25,0,0,0,.15,1.66c.05.34.15.68.23,1s.14.62.22.93c.15.59.3,1.18.46,1.77.32,1.17.61,2.35.94,3.52.17.62.39,1.23.6,1.84s.42,1.14.65,1.7c.12.3.26.58.4.87a7.05,7.05,0,0,0,.36.73l.65,1.16c.1.19.2.38.31.56l1.26,1.94c.28.43.58.83.89,1.25.49.65,1,1.31,1.49,2A26.47,26.47,0,0,0,33,257.43c.48.39,1,.79,1.46,1.15l.92.65,1.1.78c.17.12.35.25.53.36,1.09.68,2.18,1.36,3.3,2,2.25,1.29,4.48,2.58,6.77,3.79,1.18.62,2.37,1.24,3.56,1.84s2.19,1,3.29,1.48,2.31,1,3.48,1.46,2.48,1,3.75,1.43a41.69,41.69,0,0,0,7.25,1.68c1.26.18,2.54.34,3.81.48s2.61.23,3.92.3c.61.06,1.21.15,1.82.22l.63.07a4.1,4.1,0,0,0,.7,0,1.86,1.86,0,0,0,.85-.28,2.67,2.67,0,0,0,.49-.46,3.39,3.39,0,0,0,.4-.72,8.9,8.9,0,0,0,.35-1.22c.13-.6.27-1.21.38-1.81s.21-1.3.32-1.94.2-1.34.28-2,.14-1.33.2-2c.22-2.47.38-4.94.57-7.41.08-.79.17-1.58.25-2.36l0-.28.23.33c.26.39.56.76.83,1.14s.4.53.59.8c.59.78,1.18,1.56,1.79,2.32l1.74,2.14c1.63,2,3.28,4,4.9,5.94.73.91,1.45,1.82,2.13,2.78s1.43,2.14,2.22,3.16a25.91,25.91,0,0,0,5.68,5.48c.52.35,1,.71,1.57,1s1.06.62,1.6.91,1,.57,1.55.83l.3.14,0,0c-.45.33-.9.64-1.34,1-.88.69-1.78,1.36-2.65,2.06l-3,2.36c-1.08.85-2.14,1.71-3.23,2.54Q95.14,292,92,294.34l-3.19,2.41c-.45.33-.9.67-1.37,1s-1,.62-1.58.91c-1,.54-2,1-3,1.58-.76.42-1.52.85-2.28,1.25-.08-.74-.13-1.49-.19-2.24-.07-1-.15-2-.16-2.93,0-.51,0-1,0-1.51,0-.21,0-.42,0-.62A2.26,2.26,0,0,0,80,292.8a1.59,1.59,0,0,0-.76-.64,2.18,2.18,0,0,0-.61-.15l-.56-.05-1,0L76,291.86c-.92-.11-1.84-.27-2.77-.37l-3.25-.35c-1.21-.13-2.42-.23-3.61-.47s-2.44-.58-3.65-.9-2.39-.66-3.57-1-2.27-.71-3.4-1.11-2.06-.8-3.08-1.2-2.13-.86-3.18-1.33-2.2-1-3.32-1.47-2.3-.9-3.44-1.36-2.31-1-3.44-1.49-2.31-1-3.51-1.42c-.46-.17-.92-.34-1.38-.54s-1.13-.5-1.69-.79a23.67,23.67,0,0,1-2.58-1.61c-1-.72-2-1.41-3.06-2.1s-1.75-1.19-2.63-1.77c-.42-.33-.84-.66-1.24-1s-.79-.68-1.18-1-.79-.74-1.17-1.12-.71-.73-1.09-1.06-.85-.74-1.28-1.1-.78-.59-1.18-.89-.92-.68-1.36-1.05-.75-.69-1.11-1.06a14.25,14.25,0,0,1-1.23-1.66c-.37-.59-.7-1.2-1-1.82-.11-.23-.21-.47-.32-.7-1.07-2.31-2.13-4.63-3.19-6.94-.54-1.2-1.09-2.4-1.74-3.55a15.36,15.36,0,0,0-1-1.45c-.17-.22-.35-.44-.5-.68s-.24-.41-.35-.63A7.7,7.7,0,0,1,5,245.17c-.08-.42-.15-.83-.25-1.24-.18-.8-.37-1.58-.53-2.38-.11-.64-.22-1.3-.28-2m25.88,36.66.17.12-.17-.12M86,301.72l.11-.05-.11.05m9.6-36,.07.07-.07-.07"/><path class="b372e6b0-da54-4871-aed3-ffc5ed4ec111" d="M319.17,62.21a3.9,3.9,0,0,0-.82.4,3,3,0,0,0-.86.92,5.6,5.6,0,0,0-.72,1.67c-.11.37-.16.75-.24,1.13s-.17.73-.24,1.1a46.77,46.77,0,0,0-.63,5.12c-.15,1.76-.28,3.52-.42,5.27q-.4,5.18-.79,10.33c-.06.82-.07,1.63-.09,2.45L314.24,94c0,.47,0,.93,0,1.4,0,1.2,0,2.4,0,3.6,0,1.4,0,2.81.05,4.21,0,1.24,0,2.49.05,3.73,0,.63,0,1.26,0,1.89q0,3,0,6.06c0,1.49-.13,3-.21,4.48a18.8,18.8,0,0,1-.59,3.64c0,.07-.05.13-.08.19a1.07,1.07,0,0,0,.34,1.36,1.42,1.42,0,0,0,1.58,0,1.91,1.91,0,0,0,.52-.54,3.23,3.23,0,0,0,.33-.64,10.39,10.39,0,0,0,.47-1.53,18.91,18.91,0,0,0,.4-2.35c.1-1.1.21-2.2.31-3.3.17-1.78.19-3.56.25-5.33.13-3.36.15-6.7.2-10,0-2.26.09-4.52.12-6.77l.36-5.16c0-.63.13-1.25.2-1.88l.36-3.21q.56-5.08,1.24-10.15c.19-1.43.43-2.87.73-4.29.16-.73.34-1.45.51-2.17l0-.13,1.55.75q1.35.66,2.67,1.35a16.92,16.92,0,0,1,2.7,1.71,3.47,3.47,0,0,1,.25.29c0,.38,0,.77,0,1.15s0,.72-.06,1.08c0,.74-.09,1.48-.11,2.23,0,1.69-.1,3.39-.08,5.08s0,3.42.07,5.12.13,3.61.18,5.42c.06,2.67.13,5.34.15,8,0,1.24.08,2.49,0,3.73l-.24,4c-.1.91-.21,1.83-.31,2.74-.07.69-.14,1.38-.25,2.07-.29,1.88-.59,3.75-.93,5.62-.28,1.59-.61,3.18-.95,4.76-.19.86-.38,1.71-.5,2.58,0,.34-.06.68-.1,1a13.82,13.82,0,0,0-.09,1.58,2.18,2.18,0,0,0,.56,1.49,2.11,2.11,0,0,0,.89.62,2.51,2.51,0,0,0,1.73,0,2.33,2.33,0,0,0,1.28-1.08,1.92,1.92,0,0,0,.18-.51c.12-.36.16-.75.25-1.13s.18-.78.25-1.17c.14-.79.31-1.58.48-2.36.36-1.7.67-3.41,1-5.12s.53-3.57.77-5.35.36-3.42.52-5.13c.08-.87.09-1.75.13-2.62s.09-1.93.13-2.9a4.87,4.87,0,0,0,0-.54l0-1.68c0-1,0-2.09-.08-3.14-.07-3.44-.22-6.88-.35-10.32-.08-2.06-.09-4.11-.12-6.16,0-1.84.06-3.67.1-5.51.05-.74.11-1.48.16-2.23,0-.37.05-.75.08-1.13a7.58,7.58,0,0,0,0-1.26,2,2,0,0,0-.05-.24A2.74,2.74,0,0,0,333,69a4.58,4.58,0,0,0-.6-.95,6.47,6.47,0,0,0-.75-.73l-.3-.25-.47-.34c-.4-.25-.81-.47-1.23-.7-.86-.47-1.76-.88-2.66-1.3l-2.77-1.26L323.06,63c-.53-.23-1-.48-1.6-.67a3.67,3.67,0,0,0-1.86-.18,2.26,2.26,0,0,0-.43.11m9.34,8.68.05.08-.05-.08"/><path class="b372e6b0-da54-4871-aed3-ffc5ed4ec111" d="M303.33,119a2.07,2.07,0,0,0-1.28,1.54,2.37,2.37,0,0,0,.09,1.09,6.53,6.53,0,0,0,.39.85c.39.74.77,1.48,1.12,2.23.71,1.47,1.43,2.94,2.08,4.43.77,1.76,1.51,3.51,2.24,5.28.62,1.52,1.21,3.06,1.79,4.6s1.14,3,1.65,4.58c.26.77.48,1.55.7,2.33.1.35.2.7.32,1a4.53,4.53,0,0,0,.55,1.25,3.42,3.42,0,0,0,.57.63,2.12,2.12,0,0,0,.92.41,5.48,5.48,0,0,0,.7,0,13.21,13.21,0,0,0,2.81-.92c.79-.33,1.59-.69,2.34-1.09l2.4-1.3c1.39-.74,2.76-1.52,4.14-2.29s2.52-1.41,3.77-2.15l1.87-1.08a20.75,20.75,0,0,0,1.82-1.08,2.17,2.17,0,0,0,.74-2.5,2.14,2.14,0,0,0-2.78-1.24,11.17,11.17,0,0,0-2.17,1.06c-.55.32-1.08.66-1.62,1-1.11.72-2.23,1.42-3.36,2.12-2.14,1.32-4.32,2.57-6.51,3.8-.84.44-1.68.85-2.55,1.21-.11-.35-.21-.71-.32-1.06-.24-.76-.5-1.51-.8-2.24q-1-2.4-2-4.79c-.65-1.53-1.29-3-1.95-4.57-.72-1.68-1.47-3.34-2.22-5-.5-1.09-1.05-2.15-1.57-3.22-.22-.46-.45-.91-.68-1.36l.12,0c.93.16,1.85.35,2.77.54,1.86.41,3.7.87,5.54,1.38a1.59,1.59,0,0,0,1.23-.29,1.66,1.66,0,0,0,.64-1,1.62,1.62,0,0,0-.29-1.24,1.75,1.75,0,0,0-1.05-.64q-2.64-.73-5.31-1.36c-1.59-.37-3.17-.75-4.78-1a4.87,4.87,0,0,0-.55-.06,6.08,6.08,0,0,0-1.13,0l-.36.1"/><path class="b372e6b0-da54-4871-aed3-ffc5ed4ec111" d="M327.1,126.25a2.09,2.09,0,0,0,.31,2.91c1.56,1.28,3.12,2.54,4.72,3.76.63.49,1.27,1,1.92,1.41l1,.69a8.56,8.56,0,0,1-1.43,1l-.26.14a1.58,1.58,0,0,0-.5.62,1.57,1.57,0,0,0,.79,2.07,1.63,1.63,0,0,0,1.19,0,7.84,7.84,0,0,0,3-1.71,6.12,6.12,0,0,0,1.39-1.77c.07-.22.14-.44.2-.65a2.69,2.69,0,0,0-.39-1.72,4.59,4.59,0,0,0-.53-.55,26.24,26.24,0,0,0-2.67-2c-2-1.44-3.94-3-5.85-4.58a2.09,2.09,0,0,0-2.92.32"/><path class="e4fb98a4-e956-439e-b78c-933fa9376b74" d="M67.55.07,66.46.42a5,5,0,0,0-1.19.74c-.22.15-.41.34-.62.51-.67.59-1.32,1.2-2,1.76s-1.59,1.28-2.43,1.88c-.62.46-1.26.88-1.91,1.3s-1,.58-1.55.85L56,7.83a2.27,2.27,0,0,0-1.39,1.94,2.09,2.09,0,0,0,.22,1.15A2.36,2.36,0,0,0,56.1,12c.44.17.88.33,1.31.51a31.93,31.93,0,0,1,2.76,2c.69.51,1.35,1,2,1.58a54.06,54.06,0,0,1,5.06,5.32c1.65,1.92,3.34,3.81,5,5.72s3.42,4.05,5.19,6,3.39,3.79,4.91,5.83a65.57,65.57,0,0,0,4.6,5.4c1.54,1.67,3.12,3.31,4.78,4.87,1,.93,2,1.9,3,2.75l3.07,2.47c1,.77,2,1.5,2.92,2.25s1.7,1.38,2.54,2.08,1.4,1.16,2,1.79c.81.79,1.63,1.58,2.43,2.38s1.7,1.67,2.5,2.55c1.09,1.2,2.18,2.39,3.25,3.61a3.19,3.19,0,0,0,4.34.29,2.89,2.89,0,0,0,.3-4.16,107.15,107.15,0,0,0-9.59-9.83c-1.71-1.52-3.47-3-5.27-4.4-1.6-1.26-3.18-2.53-4.76-3.82L95.44,44.3c-1-.92-1.87-1.92-2.8-2.88s-1.62-1.7-2.4-2.58-1.76-1.94-2.55-3S86,33.73,85.13,32.71s-1.73-1.92-2.63-2.85C80.67,28,79,26,77.18,24c-1.39-1.53-2.85-3-4.29-4.46s-2.78-2.95-4.24-4.36a40,40,0,0,0-5-4.11c-.63-.44-1.26-.86-1.91-1.27l1.95-1.26c.82-.56,1.61-1.17,2.42-1.74s1.5-1.14,2.26-1.69l.33.25C72,8.15,75,11.09,78.25,13.84c3.42,2.91,6.88,5.76,10.34,8.62l2.84,2.45c.9.78,1.83,1.56,2.68,2.39,2.08,2,4.13,4.05,6.17,6.09,1.83,1.82,3.59,3.7,5.33,5.59s3.48,3.94,5.13,6a74.77,74.77,0,0,0,5.15,5.83c1.66,1.67,3.28,3.37,4.79,5.16q1.2,1.41,2.52,2.73c.85.87,1.71,1.74,2.63,2.53.63.55,1.23,1.17,1.9,1.66a4.63,4.63,0,0,0,3.44.94,7.94,7.94,0,0,0,2.88-1.35c1.09-.7,2.09-1.5,3.09-2.29l1-.76v.19c.08,2,.19,4,.3,6.07q.33,5.82.7,11.64c.11,2,.21,3.9.33,5.85s.16,3.88.27,5.81a2.93,2.93,0,0,0-.28,1,2.78,2.78,0,0,0,.74,2.16,3.4,3.4,0,0,0,4.85.31c1.14-.87,1.3-2.48,1.37-3.78a28.8,28.8,0,0,0-.09-3.08c-.1-2.4-.27-4.8-.42-7.21-.28-4.53-.6-9.07-.88-13.61-.12-2.29-.23-4.59-.32-6.88,0-1.07,0-2.14-.07-3.21a4.87,4.87,0,0,0-.36-2,3.26,3.26,0,0,0-1.18-1.4,3.81,3.81,0,0,0-3.08-.53,9.93,9.93,0,0,0-3.05,1.53c-1.19.76-2.36,1.54-3.49,2.39-.7.53-1.39,1-2.1,1.57-.31-.35-.63-.69-.93-1-.84-1-1.76-1.85-2.63-2.78s-1.52-1.72-2.29-2.57-1.59-1.68-2.42-2.49-1.87-1.78-2.78-2.7-1.83-1.9-2.71-2.89c-1.71-1.91-3.36-3.87-5.17-5.7-3.72-3.74-7.54-7.41-11.49-10.92-1.24-1.1-2.47-2.19-3.76-3.24L94,19.27c-2-1.6-4-3.18-6-4.76Q84.45,11.81,81,9.05L76.69,5.34C75,3.88,73.31,2.36,71.54,1A5.52,5.52,0,0,0,70.22.28,8.15,8.15,0,0,0,69.11,0l-.49,0a9.61,9.61,0,0,0-1.07.07M69,5h-.32A1.74,1.74,0,0,1,69,5m-.62.07h0l-.24.08.23-.08m.17,0,.16.07Zm-.24.08-.14.09.14-.09m75.26,82.29.12,0-.12,0"/><path class="e4fb98a4-e956-439e-b78c-933fa9376b74" d="M114.88,66.36c-1.89,2.16-3.74,4.35-5.47,6.69a4.2,4.2,0,0,0,0,4.75,11,11,0,0,0,1.57,1.76,18.73,18.73,0,0,0,2.27,1.74c1.7,1.21,3.5,2.26,5.25,3.37a60.15,60.15,0,0,0,7.15,3.93c1.55.71,3.11,1.36,4.68,2,2.19.94,4.39,1.88,6.62,2.71.77.28,1.55.51,2.32.73a11.13,11.13,0,0,0,3.17.57,2.71,2.71,0,0,0,2.06-.79,3.49,3.49,0,0,0,1-2.19,3.61,3.61,0,0,0-.67-2.41,2.74,2.74,0,0,0-1.88-1.11l-3-.43c-.83-.12-1.66-.3-2.48-.5-2.56-.71-5.08-1.56-7.59-2.45-.9-.32-1.78-.65-2.67-1a46.6,46.6,0,0,1-5.26-2.48c-1.38-.74-2.73-1.56-4.08-2.36-.9-.54-1.81-1.08-2.69-1.68a16.25,16.25,0,0,1-2.29-1.79.1.1,0,0,1,0,0c1.51-1.94,3.11-3.79,4.72-5.62a2.59,2.59,0,0,0,.19-3.21,1.91,1.91,0,0,0-1.51-.78,1.6,1.6,0,0,0-1.23.55M112.43,75a.19.19,0,0,0,0,.08.19.19,0,0,1,0-.08"/><path class="e4fb98a4-e956-439e-b78c-933fa9376b74" d="M124.06,239.31a1.62,1.62,0,0,0-.16,2.27,11.79,11.79,0,0,1,1.33,1.5c.7,1.16,1.17,2.48,1.75,3.7s1.08,2.26,1.64,3.38,1.06,2.09,1.59,3.14.91,1.94,1.36,2.91c.24.51.43,1.05.64,1.57s.37.9.54,1.35l1.2,3.28c.77,2.14,1.53,4.3,2.31,6.44,1,2.84,2.14,5.64,3.18,8.48s2,5.47,3,8.23c.62,2,1.2,4,1.84,6,.42,1.34.87,2.66,1.33,4,.32.93.65,1.87,1,2.78.5,1.17,1,2.33,1.52,3.48.44,1,.88,1.95,1.37,2.89,1.08,2,2.2,4,3.27,6.06.39.72.7,1.49,1.05,2.23s.63,1.46.93,2.2c.63,1.55,1.23,3.11,1.87,4.66,1.14,2.75,2.27,5.51,3.24,8.33.11.38.22.76.32,1.15a2.39,2.39,0,0,0,2.13,1.92,2.34,2.34,0,0,0,1.75-.57,2.24,2.24,0,0,0,.8-1.59,10,10,0,0,0-.17-2.18c-.13-.57-.28-1.13-.46-1.69-.37-1.17-.77-2.33-1.22-3.48-.77-2-1.62-3.91-2.44-5.86s-1.67-4.08-2.62-6.06c-.22-.45-.43-.92-.67-1.36l-1-1.91c-.48-.86-1-1.7-1.46-2.57a80.94,80.94,0,0,1-5.64-12.44c-.77-2.17-1.5-4.36-2.24-6.54s-1.55-4.14-2.36-6.21c-1.68-4.32-3.44-8.63-5.24-12.91-1.74-4.13-3.19-8.39-5.2-12.4-1.05-2.1-2.18-4.16-3.28-6.24-.49-.92-.94-1.88-1.38-2.82-.36-.78-.71-1.57-1.09-2.34a10.57,10.57,0,0,0-2-2.62,1.74,1.74,0,0,0-1.08-.55h-.13a1.63,1.63,0,0,0-1.06.39"/><path class="e4fb98a4-e956-439e-b78c-933fa9376b74" d="M213.92,207.08c-1.86.36-3.72.72-5.57,1.16s-3.71.82-5.55,1.28-3.72,1-5.58,1.45-3.55.92-5.29,1.47c-2,.63-3.93,1.26-5.9,1.87-1.7.52-3.43,1-5.16,1.38-2,.49-4,.94-6,1.43s-3.63,1-5.42,1.6-3.45,1.11-5.19,1.63c-1.93.59-3.87,1.16-5.78,1.84-3.72,1.33-7.33,2.93-11,4.49l-.34.16a3.13,3.13,0,0,1-.29.42,8.93,8.93,0,0,1-.79.84,2.11,2.11,0,0,1-2.28.32l-1,.48c-1.74.78-3.5,1.52-5.25,2.29s-3.28,1.54-4.94,2.27L130,234.59c-.39.17-.78.32-1.15.51s-.82.44-1.23.68c-.93.55-1.85,1.14-2.76,1.74a1.57,1.57,0,0,0-.71.79,1.45,1.45,0,0,0,.07,1.1,1.36,1.36,0,0,0,.79.7,1.3,1.3,0,0,0,1.09-.06c.87-.56,1.74-1.13,2.63-1.64.36-.21.71-.42,1.08-.6s.86-.38,1.31-.56q2.64-1,5.23-2.16t5.18-2.14c1.67-.64,3.33-1.32,5-2.06,2.14-1,4.32-1.89,6.5-2.76l3.81-1.52c1-.41,2-.75,3.07-1.09,1.84-.6,3.7-1.13,5.55-1.68s3.57-1.1,5.35-1.68,3.58-1.1,5.4-1.54l5.52-1.3c1.9-.46,3.78-.94,5.64-1.49l5.49-1.67c1.84-.55,3.73-1,5.6-1.41s3.5-.87,5.27-1.24,3.76-.76,5.63-1.19,3.53-.93,5.29-1.4a2,2,0,0,0,1.26-.82,1.93,1.93,0,0,0,.3-1.46,2,2,0,0,0-1.93-1.6,1.45,1.45,0,0,0-.35,0"/><path class="e4fb98a4-e956-439e-b78c-933fa9376b74" d="M297,151.63c-.59.29-1.19.56-1.8.82a14.1,14.1,0,0,0-2.22,1.29c-.69.46-1.36,1-2,1.44-1.17.72-2.39,1.35-3.58,2-1.48.86-2.93,1.76-4.38,2.68l-.87.55a2,2,0,0,1-.47.6,2,2,0,0,1-1,.46h-.2c-.56.37-1.11.75-1.65,1.12-1.32.91-2.62,1.85-3.94,2.75q-2.78,1.77-5.59,3.46a63.14,63.14,0,0,0-5.72,3.88c-3.58,2.72-7,5.63-10.49,8.45q-1.78,1.44-3.58,2.82c-1,.8-2.16,1.51-3.25,2.24-2.52,1.66-5.06,3.32-7.52,5.08-1.12.81-2.24,1.62-3.37,2.41s-2.32,1.58-3.49,2.35c-1.62,1.07-3.22,2.14-4.82,3.24-.74.51-1.46,1-2.2,1.57s-1.21.84-1.82,1.26c-1.23.78-2.46,1.55-3.71,2.3s-2.61,1.48-4,2.14a1.93,1.93,0,1,0,1.69,3.47l1.86-.93c.55-.27,1.08-.6,1.62-.9.89-.5,1.76-1,2.63-1.57,1.1-.68,2.19-1.37,3.27-2.08s2-1.34,3-2c2.29-1.5,4.6-3,6.9-4.43s4.59-3.1,6.87-4.68c1.82-1.18,3.66-2.34,5.48-3.54,1.18-.77,2.35-1.56,3.52-2.35.85-.58,1.65-1.22,2.45-1.86,3.61-2.88,7.15-5.84,10.81-8.67.8-.62,1.62-1.24,2.44-1.84s1.47-1,2.21-1.52c2.14-1.33,4.29-2.63,6.42-4,1.25-.79,2.44-1.65,3.66-2.49,1-.68,2-1.34,3-2,2.43-1.55,4.88-3,7.42-4.42.55-.29,1.1-.57,1.64-.87a23.5,23.5,0,0,0,2.07-1.33,14.12,14.12,0,0,0,1.3-1c.51-.44,1-.95,1.5-1.36l1.69-1a2.11,2.11,0,0,0,1-1.13,2,2,0,0,0-1.91-2.67,2.07,2.07,0,0,0-.87.19M246.6,186l-.16.1.16-.1m-17.41,16.69-.19.12.19-.12"/><path class="e4fb98a4-e956-439e-b78c-933fa9376b74" d="M298.35,151.1a1.94,1.94,0,0,0-.87,2.56c.66,1.55,1.3,3.11,1.9,4.7.45,1.18.84,2.38,1.23,3.58a.56.56,0,0,0,0-.12c.34,1.14.67,2.27,1,3.41.13.43.22.88.33,1.31l.56,2.29c.27,1.11.5,2.24.75,3.36s.5,2.21.76,3.31c.51,2.18,1.06,4.35,1.62,6.51s1.1,4.32,1.75,6.45c.74,2.41,1.49,4.82,2.32,7.2s1.71,4.81,2.6,7.19c.81,2.17,1.56,4.35,2.33,6.53s1.56,4.4,2.33,6.61c0,.12.08.24.13.37.65,2,1.29,3.94,1.86,5.93.66,2.28,1.31,4.56,2,6.84.28,1,.58,1.94.84,2.91.33,1.26.66,2.53,1,3.8.52,2.15,1,4.34,1.64,6.46.23.75.44,1.51.71,2.24s.48,1.31.73,2c.47,1.27,1,2.52,1.55,3.77.44,1.08.9,2.15,1.28,3.25l1.11,3.23c.08.25.16.51.23.77a2.71,2.71,0,0,0,1.06,1.62,2.54,2.54,0,0,0,3.51-.66,2.65,2.65,0,0,0,.39-1.9c-.06-.64-.16-1.26-.28-1.9a14.79,14.79,0,0,0-.55-1.83c-.41-1.27-.89-2.51-1.42-3.74s-1-2.27-1.48-3.41-1-2.34-1.43-3.52c-.28-.88-.55-1.76-.79-2.66-.33-1.22-.64-2.44-1-3.66-.58-2.23-1.15-4.46-1.82-6.67-1.37-4.46-2.64-8.95-4.15-13.37s-3.12-8.63-4.73-12.92c-.79-2.1-1.65-4.17-2.43-6.27-.86-2.32-1.68-4.64-2.51-7-.33-1-.65-2-1-3s-.68-2.26-1-3.39c-.66-2.22-1.26-4.46-1.86-6.7s-1.12-4.26-1.63-6.4-1-4.33-1.68-6.45c-.33-1.05-.63-2.12-1-3.16l-1-2.89c-.3-.86-.66-1.71-1-2.57-.4-1.06-.88-2.11-1.33-3.15a1.84,1.84,0,0,0-1.72-1.06,2,2,0,0,0-.83.18m14,38.71h0m4.45,25.95c0,.07,0,.14.07.22,0-.08-.05-.15-.07-.22"/><path class="e4fb98a4-e956-439e-b78c-933fa9376b74" d="M331.9,254.8c-.48.12-1,.33-1.43.5a2.52,2.52,0,0,0-1,.88,2.61,2.61,0,0,0-.17.28l-.73.45c-1.05.62-2.07,1.29-3.06,2-1.57,1.12-3.13,2.24-4.72,3.32l-2.31,1.49a31,31,0,0,0-3.14,2.2c-.86.72-1.69,1.49-2.51,2.25s-1.53,1.46-2.33,2.14c-1.8,1.52-3.73,2.88-5.61,4.3-.86.66-1.74,1.31-2.63,1.94s-1.7,1.28-2.56,1.91c-1.55,1.15-3.14,2.25-4.73,3.34s-3,2-4.51,3.08c-.76.55-1.54,1.08-2.28,1.68s-1.61,1.31-2.41,2a55.28,55.28,0,0,1-4.48,3.28l-3.69,2.45c-1,.68-2,1.41-3,2.1l-1.35.89.26-.17c-2.12,1.4-4.24,2.81-6.41,4.14-1.13.7-2.28,1.36-3.42,2s-2.12,1.35-3.16,2.05a14.61,14.61,0,0,1-2.77,1.38,43,43,0,0,1-6.08.88c-2.2.26-4.39.7-6.57,1.1-4.41.79-8.8,1.63-13.2,2.46q-3.42.64-6.84,1.25c-1.07.19-2.15.36-3.23.53s-2.1.27-3.13.47c-2.24.45-4.46,1-6.67,1.54-1.12.28-2.23.59-3.34.88s-2.21.51-3.31.75c-3,.64-6.05,1-9.09,1.36-1.51.17-3,.44-4.47.75a34.59,34.59,0,0,0-4.53,1.45c-.28.09-.57.17-.84.28l-.1,0-1.57.5c-2,.61-4,1.14-6,1.6s-4.19.94-6.27,1.46c-1.18.3-2.37.61-3.54,1a20.18,20.18,0,0,0-4.1,1.64,13.63,13.63,0,0,0-3.12,2.65,2,2,0,0,0-.67,1.32,2,2,0,0,0,.48,1.46,2,2,0,0,0,1.32.67,1.91,1.91,0,0,0,1.46-.48,15.31,15.31,0,0,1,2.09-1.94,13.8,13.8,0,0,1,2.39-1.06,62.88,62.88,0,0,1,7.55-1.7c2.25-.4,4.51-.8,6.74-1.31s4.45-1.05,6.63-1.73a25.11,25.11,0,0,1,3.06-.82c1.08-.18,2.16-.36,3.25-.48s2.45-.23,3.68-.33,2.33-.27,3.49-.42,2-.29,3-.49,2.29-.41,3.41-.68c2.27-.54,4.52-1.1,6.8-1.59,1.05-.23,2.11-.45,3.17-.64s2.08-.29,3.11-.44c4.54-.68,9.06-1.51,13.58-2.35q6.55-1.21,13.1-2.53c1.19-.23,2.37-.5,3.57-.66s2.64-.39,4-.64a16.61,16.61,0,0,0,3.88-1.26,25.86,25.86,0,0,0,3.46-2.09c1.14-.75,2.31-1.43,3.5-2.11s2.59-1.57,3.87-2.37c2.69-1.68,5.39-3.33,8-5.08l-.59.39,1.65-1.1c2.41-1.55,4.84-3.07,7.2-4.68,1.07-.72,2.05-1.53,3.06-2.32.51-.4,1-.81,1.55-1.19l1.78-1.26c3.71-2.43,7.46-4.79,11-7.4,1-.7,1.94-1.39,2.9-2.1s1.74-1.31,2.61-2l2.69-2a32.89,32.89,0,0,0,2.5-2.21c1.1-1,2.19-2.07,3.32-3.07a25.73,25.73,0,0,1,3-2.2c1.44-.92,2.87-1.85,4.26-2.83,1.23-.86,2.4-1.8,3.63-2.66.48-.31,1-.62,1.47-.92s1.23-.8,1.84-1.2a5.57,5.57,0,0,0,1.71-1.64,2.86,2.86,0,0,0,.2-2.83,2.8,2.8,0,0,0-2.3-1.57,5.72,5.72,0,0,0-1.24.11M187.65,320h0l-.37.13.09,0,.31-.11"/><path class="e4fb98a4-e956-439e-b78c-933fa9376b74" d="M298.3,150.43a6.82,6.82,0,0,0-.79.1c-.36.07-.71.16-1.07.26-.79.21-1.57.48-2.35.75s-1.37.53-2,.8-1.14.42-1.71.61a24.6,24.6,0,0,1-2.37.68c-.93.2-1.86.38-2.8.54s-2.07.34-3.11.5a3.12,3.12,0,0,1,.47,1.08,5,5,0,0,1,.1,1.33,3.34,3.34,0,0,1-.12.77c0,.09,0,.18,0,.27a48.27,48.27,0,0,0,10.05-2.55c1.36-.56,2.7-1.16,4.09-1.65l.79-.25a10.87,10.87,0,0,1,1.57-.38h.2a1.41,1.41,0,0,0,1.38-2,1.32,1.32,0,0,0-.79-.71l-.68-.15h-.33l-.47,0"/><path class="e4fb98a4-e956-439e-b78c-933fa9376b74" d="M211.35,176V176l.69-.3-.69.22"/><path class="e4fb98a4-e956-439e-b78c-933fa9376b74" d="M139.71,223.89l-4.63,3.27c-1.38,1-2.7,2-4,3.15-.59.5-1.16,1-1.75,1.55l-2,1.68c-1.56,1.32-3.09,2.67-4.62,4a1.79,1.79,0,0,0,2.35,2.7c1.61-1.42,3.22-2.85,4.87-4.23l2.3-1.93c.62-.51,1.21-1,1.84-1.55l1.17-1c.41-.33.86-.63,1.28-.94.79-.58,1.6-1.14,2.4-1.7,1.13-.78,2.27-1.56,3.39-2.35a1.77,1.77,0,0,1-.3-.45,2.05,2.05,0,0,1-.2-1.06,5.18,5.18,0,0,0,.11-.87c-.06-.45-.18-.89-.24-1.34a3.54,3.54,0,0,1,0-.46c-.65.5-1.31,1-2,1.46"/><path class="e4fb98a4-e956-439e-b78c-933fa9376b74" d="M293.3,175.62l-.29.12.22.11a2.47,2.47,0,0,1,.49-.36,1.69,1.69,0,0,0-.42.13"/><path class="e4fb98a4-e956-439e-b78c-933fa9376b74" d="M308,226.79l.11.36h0l-.15-.64a2.45,2.45,0,0,0,0,.27"/><path class="e4fb98a4-e956-439e-b78c-933fa9376b74" d="M289.3,208l0,.11c.09.32.19.64.29,1-.05-.49-.11-1-.17-1.46,0,.13-.06.26-.1.39"/><path class="e4fb98a4-e956-439e-b78c-933fa9376b74" d="M217.75,215.33a1,1,0,0,0-.48.53,1,1,0,0,0,0,.74c.29.72.59,1.43.89,2.14.23.53.48,1,.71,1.58s.51,1.23.78,1.84.58,1.36.85,2a.79.79,0,0,0,.86.43.78.78,0,0,0,.63-.92,40.59,40.59,0,0,0-1.39-4.16c-.22-.54-.47-1.06-.7-1.59-.31-.73-.62-1.46-.92-2.2a.92.92,0,0,0-.86-.53,1,1,0,0,0-.41.1"/><path class="e4fb98a4-e956-439e-b78c-933fa9376b74" d="M223.9,232.8a1.24,1.24,0,0,0-.61.68,1.33,1.33,0,0,0,.05.94c.5,1.32,1,2.65,1.52,4,.25.58.49,1.17.77,1.75l1,2a1,1,0,0,0,1.86-.11,1.1,1.1,0,0,0,0-.78l-.18-.48c-.39-1.19-.83-2.35-1.28-3.52s-1-2.59-1.46-3.89a1.22,1.22,0,0,0-1.09-.67,1.21,1.21,0,0,0-.53.12"/><path class="e4fb98a4-e956-439e-b78c-933fa9376b74" d="M231.29,251.19a.82.82,0,0,0-.65,1c.24.87.48,1.74.71,2.61a22,22,0,0,0,1.37,3.84c.31.64.62,1.29.95,1.93s.65,1.31.94,2a.73.73,0,0,0,1,.33.7.7,0,0,0,.36-.41.78.78,0,0,0,0-.56c-.33-.88-.7-1.74-1.09-2.6a35.6,35.6,0,0,1-1.42-3.36c-.44-1.34-.78-2.71-1.15-4.06a.81.81,0,0,0-.81-.67h-.15m2.11,4.73.06.18-.06-.18"/><path class="e4fb98a4-e956-439e-b78c-933fa9376b74" d="M240.81,274a1.08,1.08,0,0,0-.7.46,1,1,0,0,0-.17.81c.45,1.45.89,2.91,1.41,4.33a14.66,14.66,0,0,0,.7,1.69c.35.69.69,1.38,1,2.09a.9.9,0,0,0,1.2.42.92.92,0,0,0,.46-.51,1,1,0,0,0,0-.7c-.23-.63-.48-1.24-.7-1.87-.17-.48-.33-1-.49-1.44-.48-1.47-.94-2.94-1.4-4.41a1.19,1.19,0,0,0-.46-.7A1.06,1.06,0,0,0,241,274a.71.71,0,0,0-.2,0"/><path class="e4fb98a4-e956-439e-b78c-933fa9376b74" d="M247.28,290.81a1.14,1.14,0,0,0-.52,1.51c.53,1.06,1,2.12,1.53,3.2s.84,2,1.2,3.06a.94.94,0,0,0,.33.38,1,1,0,0,0,.74.16,1,1,0,0,0,.79-1.16c-.16-.6-.33-1.21-.52-1.81-.08-.26-.17-.53-.26-.79s-.17-.53-.28-.79c-.19-.43-.36-.88-.56-1.31-.31-.64-.62-1.29-.94-1.93a1.15,1.15,0,0,0-1-.63,1,1,0,0,0-.49.11"/><path class="e4fb98a4-e956-439e-b78c-933fa9376b74" d="M255,303.15a.73.73,0,0,0-.33,1c.71,1.31,1.43,2.62,2.11,3.94a.69.69,0,0,0,.91.32.7.7,0,0,0,.32-.92c-.65-1.34-1.35-2.65-2-4a.73.73,0,0,0-.65-.4.7.7,0,0,0-.31.07"/><path class="e4fb98a4-e956-439e-b78c-933fa9376b74" d="M271.91,197.81a.2.2,0,0,0-.06.12c-.06.32-.13.63-.19.95v0c-.05.24-.11.48-.17.72s-.21.72-.31,1.08a.17.17,0,0,0,.1.22.17.17,0,0,0,.22-.1c.08-.27.15-.54.23-.81s.09-.33.14-.5.1-.4.14-.6l.18-.9a.15.15,0,0,0,0-.13.24.24,0,0,0-.11-.06h0a.21.21,0,0,0-.11,0"/><path class="e4fb98a4-e956-439e-b78c-933fa9376b74" d="M266,184.11a2,2,0,0,0-1.61,2.35c.22.9.43,1.81.7,2.7s.61,1.91,1,2.84c.56,1.44,1.17,2.86,1.81,4.26s1.28,2.87,2,4.29c.32.67.69,1.31,1,2s.64,1.47.91,2.23c.55,1.49,1.07,3,1.63,4.48s1.15,3,1.76,4.47,1.23,2.9,1.83,4.36,1.21,2.93,1.82,4.39,1.2,2.93,1.86,4.36,1.4,2.84,2,4.29,1.26,2.87,1.91,4.29,1.27,2.89,1.93,4.32,1.39,3,2,4.46,1.24,2.86,2,4.23,1.32,2.78,1.95,4.18c.33.74.67,1.48,1,2.21s.62,1.43.92,2.15c.48,1.14.9,2.3,1.43,3.41s1,2.11,1.54,3.15,1.11,2.38,1.66,3.57c.23.51.48,1,.73,1.53s.54,1.15.86,1.7a1.11,1.11,0,0,0,2.08-.69c-.07-.37-.13-.74-.23-1.1a11.2,11.2,0,0,0-.44-1.27c-.28-.68-.57-1.35-.85-2l-.9-2.28c-.27-.69-.58-1.37-.86-2.06-.56-1.41-1.18-2.78-1.7-4.2s-1.18-2.87-1.81-4.29c-.32-.71-.64-1.41-.95-2.12s-.62-1.44-1-2.15c-.66-1.38-1.35-2.73-2-4.14s-1.25-3-1.93-4.47-1.29-2.89-1.88-4.36-1.26-2.93-1.87-4.41-1.21-2.85-1.86-4.25-1.26-2.92-1.85-4.39-1.21-3-1.79-4.5-1.16-2.93-1.76-4.39-1.21-3-1.75-4.48-1-2.94-1.59-4.4c-.28-.75-.54-1.5-.84-2.24-.14-.36-.29-.72-.44-1.08s-.35-.72-.52-1.08c-.87-1.84-1.69-3.7-2.52-5.56s-1.59-3.65-2.25-5.53c-.31-1-.57-2.08-.83-3.14a2.09,2.09,0,0,0-.84-1.29,2,2,0,0,0-1.14-.35,1.55,1.55,0,0,0-.37,0"/><path class="e4fb98a4-e956-439e-b78c-933fa9376b74" d="M282.61,169.86a1.4,1.4,0,0,0-1.11,1.63,49.82,49.82,0,0,0,1.33,5.65c.55,1.84,1.14,3.66,1.71,5.49s1.23,3.76,1.87,5.64,1.26,3.53,1.88,5.3c.53,1.52,1.06,3.05,1.58,4.57.57,1.73,1.15,3.44,1.85,5.12s1.5,3.38,2.28,5.07,1.42,3.28,2,5,1.25,3.45,1.92,5.15,1.47,3.18,2.13,4.81,1.35,3.34,2,5c.3.8.58,1.61.87,2.41s.62,1.6.94,2.39c.67,1.64,1.32,3.31,2,5s1.48,3.42,2.16,5.15,1.23,3.28,1.87,4.91c.33.84.64,1.68,1,2.5s.74,1.53,1.16,2.27a46.88,46.88,0,0,0,2.88,4.49c.57.8,1.13,1.61,1.73,2.4.29.37.56.75.82,1.15l.42.6a5.75,5.75,0,0,0,1,.93,1.51,1.51,0,0,0,2.21-1.91c-.29-.58-.57-1.15-.88-1.71s-.64-1-1-1.48a50.63,50.63,0,0,1-4.78-8.49c-.33-.84-.61-1.7-.91-2.55s-.57-1.62-.85-2.44c-.57-1.71-1.19-3.41-1.91-5.07-1.43-3.28-2.82-6.59-4.08-9.94-.62-1.65-1.22-3.3-1.89-4.92s-1.39-3.34-2.17-5c-1.56-3.24-2.63-6.67-4-10-.7-1.63-1.55-3.18-2.3-4.79s-1.55-3.27-2.25-4.94-1.21-3.23-1.86-4.84-1.26-3.14-1.91-4.7c-1.36-3.25-2.55-6.57-3.7-9.89l.06.2c-.18-.57-.37-1.14-.56-1.7-.38-1.22-.74-2.43-1.09-3.65a33.18,33.18,0,0,1-.79-3.69,1.41,1.41,0,0,0-1.38-1.13l-.25,0"/><path class="e4fb98a4-e956-439e-b78c-933fa9376b74" d="M230.15,207.49c-.73.48-1.44,1-2.14,1.47s-1.31.94-2,1.41a.53.53,0,0,0-.2.38.6.6,0,0,0,.14.43.59.59,0,0,0,.81.06c1.31-1,2.62-1.9,3.95-2.84a.55.55,0,0,0,.13-.66.55.55,0,0,0-.31-.27.65.65,0,0,0-.2,0,.4.4,0,0,0-.22.06"/><path class="e4fb98a4-e956-439e-b78c-933fa9376b74" d="M243.61,199c-1.9,1.55-3.82,3.07-5.69,4.65a.94.94,0,0,0-.09,1.3.93.93,0,0,0,1.3.09c1-.81,1.91-1.6,2.87-2.39s1.82-1.58,2.72-2.38a.84.84,0,0,0,.08-1.18.78.78,0,0,0-.62-.29.94.94,0,0,0-.57.2"/><path class="e4fb98a4-e956-439e-b78c-933fa9376b74" d="M259.8,187.82c-.58.31-1.17.58-1.75.9a7.52,7.52,0,0,0-.85.53,8.12,8.12,0,0,0-1.15,1,38.51,38.51,0,0,0-2.48,3.06,1.07,1.07,0,0,0,1.09,1.66,1.07,1.07,0,0,0,.68-.45c.81-1.05,1.6-2.11,2.47-3.11a7.85,7.85,0,0,1,1.19-1l.75-.52.81-.53a.92.92,0,0,0,.43-.48.87.87,0,0,0,0-.67.88.88,0,0,0-.78-.48.81.81,0,0,0-.37.09"/><path class="e4fb98a4-e956-439e-b78c-933fa9376b74" d="M272.56,179.28c-.75.44-1.48.91-2.21,1.39s-1.32.87-2,1.36-1.12.94-1.68,1.41-1.33,1.05-2,1.55a.74.74,0,0,0-.07,1,.67.67,0,0,0,.49.25.75.75,0,0,0,.55-.18c.67-.49,1.33-1,2-1.52s1.1-.91,1.65-1.35,1.1-.84,1.66-1.24,1.27-.9,1.92-1.34l.26-.17a.77.77,0,0,0,.34-.37.75.75,0,0,0,0-.53.72.72,0,0,0-.62-.38.46.46,0,0,0-.28.08"/><path class="e4fb98a4-e956-439e-b78c-933fa9376b74" d="M283.26,169.85a20.83,20.83,0,0,0-1.95,1.39q-1,.81-2,1.65a.47.47,0,0,0-.05.66.48.48,0,0,0,.67,0c.65-.55,1.31-1.1,2-1.64s1.2-1,1.83-1.39a.46.46,0,0,0,.13-.18.45.45,0,0,0,0-.34.45.45,0,0,0-.25-.22l-.15,0a.34.34,0,0,0-.18,0"/><path class="e4fb98a4-e956-439e-b78c-933fa9376b74" d="M299,160.68c-.88.53-1.77,1-2.64,1.59l-1,.65-.69.45a.67.67,0,0,0-.44,0l-.62.38a1.46,1.46,0,0,0-.58.52.64.64,0,0,0-.11.5.91.91,0,0,0,.19.38c.4.47,1.07.15,1.52-.07a6.12,6.12,0,0,0,.69-.43l.19-.12,2.09-1.4c.67-.43,1.33-.87,2-1.29a.7.7,0,0,0,.34-.38.67.67,0,0,0,0-.52.72.72,0,0,0-.62-.38.58.58,0,0,0-.28.07"/><path class="e4fb98a4-e956-439e-b78c-933fa9376b74" d="M270.28,295.29l-.5.28-.41.2-.59.25-1.07.43-3,1.15a.41.41,0,0,0-.21.24.44.44,0,0,0,.26.56.47.47,0,0,0,.33,0l3-1.15c.35-.14.71-.29,1.06-.45.2-.08.4-.16.6-.26l.39-.2.53-.29a.41.41,0,0,0-.19-.78.33.33,0,0,0-.17,0"/><path class="e4fb98a4-e956-439e-b78c-933fa9376b74" d="M286.8,282.12c-.85.44-1.74.84-2.57,1.33s-1.64,1-2.46,1.54-1.61,1.07-2.41,1.61c-.36.25-.72.49-1.06.75-.53.4-1.05.79-1.56,1.2a1,1,0,0,0-.1,1.4,1,1,0,0,0,1.4.1c.72-.58,1.44-1.15,2.2-1.67l2.3-1.57c1.34-.9,2.68-1.81,4-2.74l.44-.29-.17.11.36-.24.3-.19a.86.86,0,0,0,.38-.42.78.78,0,0,0,0-.58.75.75,0,0,0-.68-.42.61.61,0,0,0-.32.08m.48,1.45-.1.06.1-.06"/><path class="e4fb98a4-e956-439e-b78c-933fa9376b74" d="M299.81,271.59c-.64.37-1.26.76-1.87,1.17s-1,.72-1.54,1.08q-1.75,1.25-3.49,2.52a.84.84,0,0,0-.28.57.84.84,0,0,0,.77.91.88.88,0,0,0,.62-.21c1.13-.83,2.27-1.66,3.42-2.48s2.11-1.58,3.18-2.34a.75.75,0,0,0,.18-.88.79.79,0,0,0-.68-.42.55.55,0,0,0-.31.08"/><path class="e4fb98a4-e956-439e-b78c-933fa9376b74" d="M310.53,264.93l-3.31,2.12c-1.08.7-2.13,1.47-3.18,2.22a.74.74,0,0,0-.26.5.78.78,0,0,0,.18.55.75.75,0,0,0,1.05.07c1-.71,2-1.44,3-2.15l1.6-1.11c.54-.37,1.07-.77,1.61-1.15a.63.63,0,0,0,.15-.76.65.65,0,0,0-.35-.32.86.86,0,0,0-.24,0,.48.48,0,0,0-.26.07"/><path class="e4fb98a4-e956-439e-b78c-933fa9376b74" d="M323.5,256.36c-.73.46-1.45.94-2.16,1.42s-1.19.85-1.78,1.29c-1.28.94-2.54,1.9-3.81,2.84a.83.83,0,0,0-.08,1.15.84.84,0,0,0,.55.28.83.83,0,0,0,.6-.2l3.75-2.82c1.23-.93,2.45-1.89,3.69-2.82a.7.7,0,0,0,.16-.83.67.67,0,0,0-.38-.34.73.73,0,0,0-.25,0,.54.54,0,0,0-.29.07"/><path class="e4fb98a4-e956-439e-b78c-933fa9376b74" d="M276.91,184.61l-.78.38a12.87,12.87,0,0,0-2.66,1.78c-.47.38-.94.72-1.44,1.06a5.1,5.1,0,0,0-.73.57,8.71,8.71,0,0,1-.85.76,16.52,16.52,0,0,1-2.33,1.1.82.82,0,1,0,.71,1.47,18.63,18.63,0,0,0,1.93-.87,6,6,0,0,0,.69-.42,5.46,5.46,0,0,0,.64-.53,10.28,10.28,0,0,1,.76-.71c.24-.2.5-.37.74-.56s.52-.43.77-.66a10.71,10.71,0,0,1,1.33-1.09,11.77,11.77,0,0,1,2-.92,1.14,1.14,0,0,1,.25-.06l0,0,.21.25c.26.44.46.91.68,1.38s.34.82.51,1.23c.34.85.7,1.7,1,2.56s.62,1.72,1,2.57.54,1.48.79,2.23c.48,1.5,1,3,1.49,4.49.2.62.41,1.24.62,1.85l.15.46s0-.1,0-.14c.45,1.46.84,2.94,1.31,4.39.27.84.55,1.68.83,2.51s.52,1.44.78,2.17c.72,2.21,1.34,4.47,2.15,6.66.39,1.07.83,2.14,1.26,3.2s.83,2.13,1.29,3.18c.92,2.06,1.8,4.14,2.69,6.22.46,1.08.92,2.16,1.47,3.2l1.59,3c.51,1,1,2,1.59,3s1.07,1.94,1.58,2.93,1.05,2,1.58,3c.29.53.54,1.06.81,1.6s.49,1,.7,1.53c.05.12.09.25.14.37.25.82.49,1.63.76,2.44l-.12-.36c.21.64.4,1.28.57,1.93a13.36,13.36,0,0,1,.41,1.77c0,.05,0,.09,0,.14l-.06.16a4.71,4.71,0,0,1-.33.45,6.8,6.8,0,0,1-.86.75l-.9.62c-.72.47-1.48.88-2.2,1.36-.38.26-.76.51-1.13.78-.2.15-.39.32-.58.49l-.16,0a1.3,1.3,0,0,0-.61.3,1.34,1.34,0,0,0-.37.54,1.21,1.21,0,0,0,.06,1,1.8,1.8,0,0,0,.56.69,4.23,4.23,0,0,0,.47.25,1.33,1.33,0,0,0,.9,0,1.31,1.31,0,0,0,.67-.32,1.33,1.33,0,0,0,.19-.14l.25-.19c.28-.23.57-.45.87-.65l.61-.41c.82-.53,1.65-1,2.43-1.59a11.45,11.45,0,0,0,1.17-.91,9.44,9.44,0,0,0,1.08-1.2,4.34,4.34,0,0,0,.57-1.06,3.62,3.62,0,0,0,.11-1.76c-.07-.47-.19-.93-.3-1.38-.27-1.09-.62-2.15-1-3.21l.12.36c-.2-.62-.37-1.25-.59-1.87a15.06,15.06,0,0,0-.68-1.6c-.5-1-1.06-2-1.6-3s-1-2-1.56-3c-.26-.49-.52-1-.8-1.47s-.57-1-.84-1.49l-1.53-2.94c-.52-1-1.05-2-1.54-3.06s-1-2.22-1.43-3.33-.83-2.05-1.25-3.06c-.19-.45-.37-.91-.57-1.36s-.4-.95-.59-1.43c-.36-.95-.72-1.91-1.09-2.85s-.77-1.94-1.13-2.91-.63-1.79-.93-2.69c-.48-1.49-1-3-1.53-4.46-.27-.71-.56-1.42-.82-2.13s-.47-1.31-.7-2c-.35-1.13-.71-2.26-1.08-3.38s-.81-2.3-1.22-3.45-.81-2.15-1.22-3.22-.82-2.15-1.28-3.2-.89-2.11-1.38-3.14-1-2.12-1.55-3.15c-.47-.87-1-2-2.09-2.16h-.21a2.74,2.74,0,0,0-1.14.34m7.18,17.57.09.28-.09-.28"/><path class="e4fb98a4-e956-439e-b78c-933fa9376b74" d="M287.15,179.18a.69.69,0,0,0-.22.42.63.63,0,0,0,1,.53.6.6,0,0,0,.22-.42.63.63,0,0,0-1-.53"/><path class="e4fb98a4-e956-439e-b78c-933fa9376b74" d="M292.18,177a11.51,11.51,0,0,0-1.4.59c-.73.34-1.46.7-2.2,1s-1.51.66-2.28,1l-1.08.33a1.55,1.55,0,0,0-.94.61,1.47,1.47,0,0,0,.38,2,1.43,1.43,0,0,0,1.1.23c.75-.22,1.5-.45,2.22-.73s1.32-.56,2-.87,1.14-.58,1.71-.87.84-.47,1.28-.68a14.73,14.73,0,0,1,1,2.28l.94,2.74c1.11,3.44,2.14,6.92,3.53,10.26s2.41,6.72,3.79,10c.36.86.71,1.71,1,2.58s.58,1.62.86,2.44q.84,2.42,1.77,4.78c.62,1.59,1.19,3.19,1.84,4.76s1.49,3.07,2.22,4.61,1.45,3.42,2.17,5.13c.38.92.8,1.82,1.15,2.75s.67,1.79,1,2.7l-.17-.5c.3.9.61,1.79.94,2.69.25.69.57,1.37.88,2s.71,1.29,1,2a14,14,0,0,1,.74,1.74,6.51,6.51,0,0,1,.23,1l0,.38c0,.07-.05.14-.07.21l0,0a9.89,9.89,0,0,1-.81.64,16,16,0,0,1-1.46.81,10.74,10.74,0,0,0-1.91,1.12,2.38,2.38,0,0,0-1,1.59,1.94,1.94,0,0,0,.8,1.7,1.92,1.92,0,0,0,1.47.3,3,3,0,0,0,1.11-.47c.36-.23.71-.47,1.06-.71a31.25,31.25,0,0,0,2.66-1.95,5.19,5.19,0,0,0,1.06-1.23,4.74,4.74,0,0,0,.63-2.39,7.63,7.63,0,0,0-.39-2.28c-.19-.62-.39-1.22-.63-1.82s-.48-1-.72-1.49c-.44-.92-.82-1.86-1.17-2.82l-.42-1.29.17.5c-.39-1.2-.76-2.4-1.16-3.6l0,.08-.39-1.14c-.16-.43-.36-.85-.53-1.26-.31-.73-.6-1.47-.9-2.2-.67-1.65-1.33-3.29-2.07-4.9-.36-.78-.78-1.53-1.13-2.32s-.62-1.45-.92-2.18c-.64-1.58-1.24-3.18-1.88-4.77s-1.29-3.26-1.89-4.91c-.3-.8-.6-1.61-.93-2.4s-.72-1.64-1.09-2.45-.67-1.63-1-2.45-.66-1.6-1-2.41c-.64-1.68-1.33-3.33-2.1-5s-1.43-3.27-2.05-4.94-1.31-3.47-2-5.21c-.31-.82-.65-1.64-1-2.44a6.91,6.91,0,0,0-1.66-2.55l-.23-.2a4.59,4.59,0,0,0-.5-.24l-.15,0a2.1,2.1,0,0,0-.5-.09l-.2,0a2.8,2.8,0,0,0-.86.17m.65,2.5h0Zm25.71,55.91a1.83,1.83,0,0,1,.08.25l-.08-.25"/><path class="e4fb98a4-e956-439e-b78c-933fa9376b74" d="M221.85,235.15a14.86,14.86,0,0,0-2.08.46c-.58.17-1.15.33-1.74.47-1.25.28-2.5.61-3.75.9s-2.64.59-3.94,1-2.46.76-3.72,1l-3.81.88c-1.24.29-2.5.57-3.73.91s-2.73.77-4.08,1.16-2.59.71-3.89,1-2.66.64-4,1-2.6.65-3.91,1-2.55.62-3.83,1-2.67.69-4,1-2.69.54-4,.8l-4,.76c-2.66.52-5.32,1.05-7.95,1.73s-5.25,1.43-7.88,2.07c-1.28.32-2.54.66-3.81,1s-2.67.74-4,1.11-2.72.86-4.07,1.31a37.06,37.06,0,0,0-3.75,1.56,1.52,1.52,0,0,0,1.34,2.72c.59-.27,1.19-.56,1.79-.8l1.63-.63c1.18-.38,2.36-.76,3.55-1.12s2.51-.67,3.77-1,2.59-.71,3.89-1,2.61-.67,3.91-1,2.6-.7,3.9-1,2.72-.67,4.09-1c2.68-.6,5.38-1.1,8.08-1.63,1.24-.24,2.5-.46,3.74-.74s2.68-.63,4-1,2.55-.66,3.83-1,2.61-.65,3.92-1c2.63-.65,5.27-1.29,7.88-2.07,1.36-.41,2.73-.83,4.1-1.21,1.22-.35,2.45-.66,3.68-1,1.41-.37,2.8-.79,4.2-1.2s2.6-.84,3.9-1.28c1.84-.58,3.72-1,5.57-1.52.91-.27,1.82-.52,2.72-.81.5-.16,1-.34,1.48-.52s1-.39,1.53-.62a.92.92,0,0,0,.49-1,.91.91,0,0,0-.92-.74h-.14m-81.41,23.46-.12,0,.12,0"/><path class="e4fb98a4-e956-439e-b78c-933fa9376b74" d="M220.42,237a.6.6,0,0,0-.22.42.63.63,0,0,0,1,.53.69.69,0,0,0,.22-.42.63.63,0,0,0-1-.53"/><path class="e4fb98a4-e956-439e-b78c-933fa9376b74" d="M153.65,265.94a.69.69,0,0,0-.22.42.63.63,0,0,0,1.26.11.63.63,0,0,0-.58-.68.64.64,0,0,0-.46.15"/><path class="e4fb98a4-e956-439e-b78c-933fa9376b74" d="M209.52,248.65a8.12,8.12,0,0,0-.85.07,15.27,15.27,0,0,0-1.53.27c-.47.1-.93.23-1.39.36l-1.36.35c-1,.25-1.94.45-2.91.65-2,.41-3.93.85-5.87,1.41-.89.26-1.77.55-2.67.8s-2,.52-3,.78c-1.93.51-3.85,1.08-5.79,1.56l-2.83.7c-.95.24-1.89.52-2.83.8-2,.62-4.06,1.21-6.09,1.81-1.43.43-2.84.92-4.26,1.4s-2.65.94-4,1.39c-1.59.49-3.19.95-4.79,1.42-.85.25-1.7.5-2.54.78s-1.89.7-2.83,1.06a.73.73,0,0,0-.41.48,2.5,2.5,0,0,0-.92,1.26,3.25,3.25,0,0,0,0,1.64c.1.42.2.83.31,1.25a21,21,0,0,0,.93,2.77c.16.36.34.72.51,1.08s.35.82.52,1.23c.33.79.62,1.6.89,2.42a10.12,10.12,0,0,1,.32,1.11c.12.47.22.95.32,1.42a21.58,21.58,0,0,0,.95,2.95,14.06,14.06,0,0,0,.54,1.35c.22.47.46.92.69,1.39.4.82.79,1.65,1.19,2.47.22.47.44.94.69,1.39s.54.94.8,1.42a17.49,17.49,0,0,1,1.22,2.68c.13.47.24.95.34,1.44s.16.94.23,1.41c.14,1,.28,2,.5,3s.43,1.9.71,2.83a23.19,23.19,0,0,0,1.1,3c.22.47.45.94.68,1.4a7.19,7.19,0,0,0,1.12,1.74c.66.7,1.35,1.35,2,2.07s1.26,1.4,1.87,2.13c.32.4.65.79,1,1.19a5.86,5.86,0,0,0,2.29,1.9,6.45,6.45,0,0,0,1,.27,7,7,0,0,0,3.05,0,11.64,11.64,0,0,0,1.64-.43l1.72-.58,2.82-.84c.47-.13.94-.24,1.41-.35l1.43-.35c.95-.23,1.91-.41,2.86-.63s2-.44,2.94-.7,1.87-.53,2.79-.83l3-1c1-.32,2-.67,3-1s1.82-.64,2.71-1l2.85-1.1c.76-.3,1.53-.58,2.3-.84,1.92-.62,3.84-1.21,5.78-1.76s3.76-1.1,5.64-1.63c1-.29,2-.63,3-1s1.81-.68,2.7-1c.25-.1.49-.2.73-.32a8,8,0,0,0,1.19-.72,5.71,5.71,0,0,0,1-.85,4.63,4.63,0,0,0,.62-1,4.31,4.31,0,0,0,.52-1.79,4.61,4.61,0,0,0-.19-1.47c-.12-.46-.26-.93-.41-1.39A12.34,12.34,0,0,0,230,291c-.21-.45-.46-.88-.71-1.31A21,21,0,0,1,228,287c-.35-.89-.65-1.8-1-2.69s-.74-1.86-1.1-2.8c-.14-.37-.27-.76-.39-1.14-.28-.86-.5-1.74-.72-2.62a28,28,0,0,0-1-3.1,10.51,10.51,0,0,0-.63-1.31c-.23-.42-.45-.84-.66-1.27-.42-.88-.7-1.83-1-2.75-.21-.59-.47-1.18-.69-1.77s-.44-1.2-.64-1.8c-.25-.76-.49-1.53-.76-2.29s-.59-1.51-.88-2.27c-.58-1.5-1.09-3-1.6-4.54-.3-.91-.61-1.81-1-2.7-.19-.48-.4-.94-.63-1.4a9.26,9.26,0,0,0-1.2-1.78,8.77,8.77,0,0,0-1.12-1.16,4,4,0,0,0-1.84-.88,6.65,6.65,0,0,0-1-.11H210l-.46,0m1.26,1.68a3.2,3.2,0,0,1,.52.18,3.35,3.35,0,0,1,.44.29,9.68,9.68,0,0,1,1.22,1.49,7.34,7.34,0,0,1,.62,1.14c.13.32.26.64.38,1,.19.49.35,1,.52,1.5.47,1.52.92,3,1.46,4.56s1.13,2.85,1.64,4.3l.54,1.65v0l.07.22,0,.05v0c.29.87.61,1.73,1,2.59s.66,1.7,1,2.56a15.67,15.67,0,0,0,1.19,2.52,15.16,15.16,0,0,1,1.1,2.51c.14.45.27.9.39,1.36s.21.87.33,1.3.28,1,.44,1.45.34,1,.52,1.53.36.91.53,1.36l.57,1.44c.33.9.62,1.81,1,2.71a17.76,17.76,0,0,0,1.27,2.77c.24.42.5.84.7,1.28s.35.84.51,1.27a9.42,9.42,0,0,1,.46,1.81,2.8,2.8,0,0,1,0,.4,4.66,4.66,0,0,1-.27.74,5.07,5.07,0,0,1-.36.54,5.71,5.71,0,0,1-.72.58,8.92,8.92,0,0,1-1,.54l-.63.26-1.37.51c-.76.28-1.53.54-2.3.8-1,.29-1.9.55-2.86.8s-1.78.48-2.66.74c-1.95.56-3.91,1.09-5.85,1.69-1.05.33-2.1.66-3.13,1s-1.78.7-2.68,1l-3.13,1.16c-.91.33-1.84.64-2.76.95l-.57.19-2.64.83c-.92.28-1.83.59-2.77.83-2,.51-4,.94-6,1.36-1.28.27-2.55.59-3.8.95s-2.53.79-3.78,1.22c-.45.15-.89.28-1.35.39a9.21,9.21,0,0,1-1.28.2,8.52,8.52,0,0,1-1.24-.09,5.58,5.58,0,0,1-.88-.27,4.7,4.7,0,0,1-.53-.38c-.33-.32-.62-.68-.92-1l-.69-.8c-.44-.53-.91-1-1.39-1.55s-1-1-1.49-1.55a14.09,14.09,0,0,1-1.75-1.79,18.7,18.7,0,0,1-1.21-2.19,20.67,20.67,0,0,1-.93-2.41c-.29-1-.55-1.92-.78-2.89s-.36-1.89-.51-2.83a19,19,0,0,0-.69-3.08,13.6,13.6,0,0,0-.54-1.38c-.19-.43-.39-.84-.61-1.26-.39-.78-.84-1.53-1.2-2.32s-.71-1.59-1.09-2.37c-.18-.39-.37-.77-.56-1.16s-.41-.79-.59-1.2c-.36-.82-.67-1.65-1-2.49s-.43-1.65-.64-2.49c-.1-.42-.22-.82-.36-1.23s-.3-.95-.47-1.42c-.32-.86-.65-1.72-1-2.56s-.74-1.59-1-2.42c-.13-.41-.25-.83-.35-1.25-.06-.23-.11-.46-.16-.69a8.73,8.73,0,0,1-.19-1c0-.11,0-.22,0-.33v0l.15-.21.22-.21a.83.83,0,0,0,.2-.3l1.8-.7c.42-.16.86-.29,1.29-.43,1.88-.55,3.78-1.07,5.66-1.65s3.9-1.33,5.86-2l1-.33c.93-.3,1.85-.6,2.78-.88s1.94-.59,2.92-.87c1.91-.57,3.8-1.18,5.73-1.67s3.87-1,5.79-1.53l3.08-.86,2.73-.76c1-.29,2-.62,2.94-.92s1.79-.5,2.69-.72c2-.46,3.91-.87,5.84-1.36.63-.17,1.26-.34,1.9-.47a13.13,13.13,0,0,1,2-.29,8.66,8.66,0,0,1,1.83.11m6.19,6.43.05.16Zm-62.5,9.45a.59.59,0,0,1,0,.08.59.59,0,0,0,0-.08m11.62,34.38,0,.08,0-.08m2.24,4.85.09.13-.09-.13M180,312.18l-.07,0,.07,0m2.07,1.69-.18.06.18-.06"/><path class="e4fb98a4-e956-439e-b78c-933fa9376b74" d="M199.37,226.27c-1.24.31-2.45.7-3.69,1s-2.38.59-3.58.82-2.53.49-3.8.76-2.62.6-3.91,1c-.62.18-1.22.39-1.83.58l-1.91.6c-1.2.38-2.41.73-3.61,1.1q-3.78,1.17-7.61,2.17t-7.79,2.17c-1.26.37-2.53.7-3.79,1.08s-2.61.82-3.92,1.25c-.59.19-1.18.41-1.77.61a21.86,21.86,0,0,0-2.37.91,2.11,2.11,0,0,0-.76.66,2.08,2.08,0,0,0-.2,1.49,5,5,0,0,0,.21.78c.17.57.36,1.13.53,1.7a26.92,26.92,0,0,1,.66,3.45c.19,1.25.36,2.5.5,3.76a1.28,1.28,0,0,0,2.32.48,1.34,1.34,0,0,0,.2-1c-.2-1.75-.45-3.48-.75-5.22a16.41,16.41,0,0,0-.54-2.28c-.21-.69-.49-1.36-.73-2,.6-.26,1.24-.46,1.86-.69l1.29-.44c1.2-.38,2.4-.75,3.61-1.1l2-.56c.61-.17,1.23-.3,1.85-.47,2.61-.69,5.21-1.4,7.83-2l3.66-.92q1.95-.5,3.87-1.08c1.23-.37,2.46-.72,3.69-1.1s2.57-.81,3.85-1.2c2.48-.76,5-1.25,7.56-1.78,1.23-.25,2.43-.59,3.64-.91s2.37-.74,3.57-1.07a11.29,11.29,0,0,1,1.91-.45l.28,0,.16.06a1.51,1.51,0,0,1,.26.18,8.63,8.63,0,0,1,.81,1c.47.76.84,1.57,1.28,2.34.23.42.45.83.65,1.26a13.88,13.88,0,0,1,.51,1.32c.26.83.48,1.68.7,2.53.11.43.21.86.31,1.29.07.28.15.56.23.84a3.89,3.89,0,0,0,.33.79,4.82,4.82,0,0,0,.66.83,1.11,1.11,0,0,0,1.68-1.46l-.21-.28c0-.1-.1-.19-.14-.29-.08-.32-.13-.65-.2-1l-.24-1.08c-.14-.61-.29-1.21-.46-1.81a20.64,20.64,0,0,0-.65-2c-.13-.33-.26-.65-.41-1s-.27-.51-.41-.76c-.29-.5-.56-1-.84-1.51a16.18,16.18,0,0,0-1.09-1.77,6.73,6.73,0,0,0-.6-.72,4,4,0,0,0-.76-.66,3.24,3.24,0,0,0-1.19-.48,3.49,3.49,0,0,0-.65-.06,8.41,8.41,0,0,0-2.06.37m-48.5,16-.07.07a.23.23,0,0,1,.07-.07h0"/><path class="e4fb98a4-e956-439e-b78c-933fa9376b74" d="M207,247.38a31.27,31.27,0,0,0-3.21.4,36.91,36.91,0,0,0-6.53,2.13c-2,.74-3.93,1.41-5.89,2.12s-3.86,1.46-5.76,2.26-3.68,1.4-5.54,2q-1.65.51-3.33.93c-1.24.31-2.49.59-3.71,1-.71.22-1.43.45-2.12.72s-1.24.52-1.86.79c-1,.46-2.07.94-3.14,1.34-2.31.71-4.67,1.21-7,1.72a17.49,17.49,0,0,0-3.68,1.16c-.47.22-.92.49-1.38.75-.21.12-.43.25-.64.39s-.3.2-.44.31a2,2,0,0,0-.91.2,2.1,2.1,0,0,0-.95,2.77c.58,1.24,1.2,2.47,1.74,3.73.45,1,.84,2.08,1.2,3.14.37,1.23.72,2.46,1.07,3.7.18.65.39,1.3.58,2s.36,1.38.53,2.08c.31,1.32.57,2.65.88,4a33,33,0,0,0,1.11,3.63c.29,1,.55,1.94.79,2.92A30.86,30.86,0,0,0,159.8,297a48.57,48.57,0,0,0,2.45,6c.49.94,1,1.9,1.47,2.83s.94,1.61,1.44,2.4a56.18,56.18,0,0,0,3.92,5.64c.22.27.44.55.67.8a11.54,11.54,0,0,0,1.09,1,6.78,6.78,0,0,0,.84.45,4.27,4.27,0,0,0,.61.18,12.2,12.2,0,0,0,3.19.36,18.06,18.06,0,0,0,2.94-.27l2.67-.53c1.82-.37,3.62-.85,5.43-1.24.86-.19,1.72-.37,2.56-.59s1.77-.52,2.65-.82l2.62-.87-.1,0c1.05-.35,2.08-.72,3.11-1.12s2-.84,3-1.23,2-.73,3-1.12,2-.83,3-1.27c2-.88,4-1.72,6-2.6s3.87-1.67,5.85-2.41l1-.37c1.07-.35,2.15-.69,3.23-1.06.92-.3,1.84-.59,2.78-.83a23.31,23.31,0,0,0,3.25-1.07,6,6,0,0,0,2.27-1.6,4.33,4.33,0,0,0,.9-1.82,13.35,13.35,0,0,0,.29-2.08,18,18,0,0,0-.79-5.08c-.5-2.17-.9-4.38-1.52-6.53-.31-1.06-.65-2.11-1-3.16-.38-1.23-.77-2.45-1.22-3.66-.36-1-.76-1.9-1.14-2.85s-.77-2-1.14-3.05-.71-2-1.12-2.95-.9-1.81-1.33-2.73-.77-2-1.18-2.93-1-1.85-1.48-2.79-.74-1.67-1.17-2.49a32.81,32.81,0,0,0-2-3.24,11.27,11.27,0,0,0-2.22-2.25c-.7-.58-1.46-1.07-2.18-1.62-.15-.11-.29-.24-.43-.35L212,248a4.53,4.53,0,0,0-.87-.39,6.26,6.26,0,0,0-1.78-.3h-.48c-.62,0-1.25.06-1.87.1m2.46,4.3.16,0,0,0c.73.69,1.52,1.3,2.29,2,.26.24.5.48.74.74s.37.47.54.71c.62,1,1.23,2,1.75,3,.25.51.51,1,.77,1.54a15,15,0,0,0,.89,1.49,26.41,26.41,0,0,1,1.57,2.92c.24.52.49,1,.75,1.55a12.14,12.14,0,0,0,.91,1.45,43.21,43.21,0,0,1,2.82,6c.9,2.14,1.83,4.27,2.58,6.48l-.15-.47c.31,1,.64,1.92,1,2.87.48,1.52.91,3,1.27,4.61.21.91.42,1.83.64,2.75a29.89,29.89,0,0,1,.73,3.48,13.85,13.85,0,0,1-.22,2,2.67,2.67,0,0,1-.13.4l-.1.14-.17.15a10.54,10.54,0,0,1-1.33.59c-.94.27-1.91.44-2.86.66s-2.06.53-3.1.79-2.09.51-3.12.83-2.25.67-3.36,1-2.06.7-3.05,1.12-2,.83-3,1.23c-2,.81-4,1.79-6.08,2.59-1.53.59-3.08,1.11-4.61,1.68-.75.29-1.48.62-2.22.91s-1.5.58-2.26.84l-3.56,1.16c-2.14.65-4.34,1.1-6.5,1.66-1.16.3-2.32.56-3.5.8-1,.19-1.91.4-2.89.5a14.05,14.05,0,0,1-2.24-.15l-.46-.13c-.18-.23-.34-.47-.51-.71l.15.22c-.42-.63-.84-1.24-1.27-1.86-.76-1.16-1.5-2.33-2.19-3.53s-1.47-2.56-2.18-3.85c-.4-.74-.82-1.48-1.22-2.23s-.66-1.36-1-2-.61-1.5-.91-2.26-.53-1.36-.77-2.06c-.41-1.27-.77-2.57-1.23-3.82-.36-1-.78-2-1.14-3-.46-1.54-.86-3.11-1.29-4.66-.5-1.84-1.14-3.63-1.75-5.43-.56-1.64-1.1-3.28-1.75-4.89-.38-.95-.81-1.88-1.24-2.8l0,0,.81-.42a11.76,11.76,0,0,1,1.44-.66c1.23-.36,2.49-.6,3.74-.87s2.77-.62,4.12-1c.81-.24,1.62-.5,2.41-.81.63-.24,1.24-.54,1.86-.81,1.18-.52,2.34-1.06,3.55-1.49,2-.61,4.12-1,6.16-1.57a69.62,69.62,0,0,0,6.59-2.33c.92-.36,1.83-.76,2.74-1.15s2-.8,3-1.16c2-.7,4-1.39,6-2.12,1.63-.59,3.22-1.27,4.84-1.86a26.37,26.37,0,0,1,5.29-.9,8.51,8.51,0,0,1,1.24.06m18.71,43.88-.13.15.13-.15m-.23.15-.11.08.11-.08m-5.32,5.55-.36.12.36-.12m-48.92,10.33.12.1h0l-.11-.09m.31.23.12.06-.12-.06h0"/><path class="e4fb98a4-e956-439e-b78c-933fa9376b74" d="M263.7,137.15l-.22.07a3.23,3.23,0,0,0-.59.22,2.8,2.8,0,0,0-.56.36l-.39.28c-.29.23-.55.5-.82.76-.53.48-1.11.92-1.65,1.4a21,21,0,0,1-1.61,1.36c-.44.34-.89.66-1.35,1-1.2.77-2.46,1.45-3.66,2.22-1.49,1-3,2-4.43,3-.61.43-1.19.89-1.78,1.34l-2,1.53q-2,1.48-3.94,3t-4,3c-1.29.94-2.6,1.86-3.89,2.8-2.53,1.83-5.13,3.57-7.69,5.38-.68.48-1.38.94-2,1.45L220.73,168c-.66.52-1.3,1.08-1.95,1.62L217,171.18c-1.16,1-2.34,1.88-3.52,2.8-.62.46-1.22,1-1.84,1.39l-2.13,1.51-1.93,1.25c-.67.44-1.38.84-2.07,1.25-1.28.76-2.59,1.47-3.89,2.19-3,1.64-5.95,3.33-9,4.87q-2.11,1.08-4.31,2t-4.41,1.71c-1.53.55-3.07,1.08-4.58,1.67l-4.71,1.82-3.27,1.26c-1.25.47-2.5.93-3.71,1.48-1.06.48-2.09,1-3.16,1.48s-2.07.8-3.12,1.15l-4.44,1.29a36,36,0,0,0-4.52,1.55c-2.67,1.2-5.4,2.29-8.16,3.29a19.79,19.79,0,0,1-2,.56,17.77,17.77,0,0,1-2.31.28l-1.67.1a14.6,14.6,0,0,0-1.87.17,2.23,2.23,0,0,0-1.49,1.08,2.1,2.1,0,0,0-.29,1.2,6.12,6.12,0,0,0,.1.86,25.87,25.87,0,0,0,1,3.36c.47,1.5.83,3,1.36,4.52s1.14,2.9,1.72,4.35,1.17,2.86,1.86,4.24c.34.67.7,1.33,1,2l1.11,2.1a6.34,6.34,0,0,0,.54.81,1.06,1.06,0,0,0,.82.41.76.76,0,0,0,.8-.89c-.13-.66-.24-1.31-.31-2s-.1-1.44-.14-2.16a.5.5,0,0,0-1,.19.49.49,0,0,0,0,.12c-.21-.51-.42-1-.62-1.54-.43-1.07-.81-2.16-1.18-3.25-.64-1.91-1.38-3.79-2-5.69-.4-1.28-.76-2.57-1.2-3.84s-.89-2.43-1.34-3.65c0,0,0-.06,0-.09h.18c.68,0,1.37,0,2.06,0s1.56,0,2.34,0a12.29,12.29,0,0,0,2.42-.27c.78-.19,1.55-.41,2.32-.65q2.29-.7,4.55-1.55c1.38-.53,2.74-1.09,4.12-1.6s2.91-.86,4.37-1.26c.76-.21,1.53-.41,2.29-.63s1.77-.56,2.65-.88c.7-.25,1.41-.51,2.1-.8s1.41-.66,2.13-1,1.54-.66,2.32-1,1.51-.57,2.27-.84c3-1.12,6-2.31,9.06-3.41,1.45-.53,2.91-1,4.36-1.56.76-.29,1.52-.56,2.28-.86s1.59-.61,2.36-1,1.54-.68,2.3-1.06l2.32-1.15c.79-.39,1.56-.82,2.34-1.23l2.09-1.13c1.31-.7,2.63-1.4,3.93-2.11l2.42-1.31c.79-.43,1.56-.91,2.34-1.36s1.37-.87,2.05-1.31,1.43-.95,2.14-1.44q1.92-1.33,3.76-2.79l2.13-1.67c.67-.53,1.32-1.09,2-1.64l2-1.63c.59-.5,1.21-1,1.82-1.44,2.54-2,5.23-3.75,7.82-5.64s5.43-4,8.11-6c1.23-.93,2.43-1.9,3.64-2.87s2.41-1.9,3.6-2.87l1.81-1.47c.38-.31.77-.6,1.17-.89a1.59,1.59,0,0,1,.13-.13c.72-.74,1.45-1.49,2.21-2.19a19.13,19.13,0,0,1,1.88-1.6,5.91,5.91,0,0,1,2.59-1.31,2,2,0,0,1,.85,0c.53-.37,1-.77,1.53-1.19.71-.62,1.36-1.32,2.05-2,.34-.32.7-.61,1-.95a8.16,8.16,0,0,1,.87-.8l0,0h0a1.64,1.64,0,0,1,.22.14c.11.12.21.25.31.38.25.41.47.83.72,1.25s.55.86.79,1.31l.12.22a1.87,1.87,0,0,1,.84.58,2.81,2.81,0,0,1,.38.61,6.57,6.57,0,0,1,.22.67l.09.29a1.83,1.83,0,0,1-.16,1.25l.18.75.26.39a6.48,6.48,0,0,1,1.12,2.32,2.07,2.07,0,0,1-.37,1.59c.2.85.4,1.7.65,2.54.34,1.14.72,2.27,1.1,3.41l-.21-.62c.49,1.47.95,3,1.51,4.41.24.63.51,1.25.77,1.87a6,6,0,0,0,1.11,1.87,1.55,1.55,0,0,1,.19.24.83.83,0,0,1,.07.13,1.66,1.66,0,0,0,1.32.9,1.64,1.64,0,0,0,.84-.16,1.56,1.56,0,0,0,.8-.91.13.13,0,0,0,0-.06,2.74,2.74,0,0,0,.64-1,3.17,3.17,0,0,0,.09-1.53,7.25,7.25,0,0,0-.29-.9c-.16-.48-.36-.94-.57-1.41-.4-.91-.78-1.83-1.13-2.77L274.67,155c-.33-.92-.67-1.84-1-2.76-.22-.7-.44-1.4-.65-2.11s-.53-1.62-.8-2.44-.52-1.68-.84-2.49a14,14,0,0,0-1.07-2.16,21.73,21.73,0,0,0-1.47-2.21c-.42-.56-.85-1.12-1.29-1.67a7.26,7.26,0,0,0-.69-.78,3.9,3.9,0,0,0-1-.75,3.79,3.79,0,0,0-.86-.35,3.55,3.55,0,0,0-.65-.12l-.65,0m.67,2.76-.07,0,.07,0m-.63,0,.11,0-.11,0m13.37,25.15c0,.05-.05.09-.07.14a.91.91,0,0,1,.07-.14m-3.32.19a.83.83,0,0,1,.08.12l-.08-.12M137.43,208.35h0m-.56.06,0,.07,0-.07m-.14,0,0,0,0,0"/><path class="e4fb98a4-e956-439e-b78c-933fa9376b74" d="M132.63,217.65a.26.26,0,0,0-.11.07.31.31,0,0,0,0,.13.18.18,0,0,0,.08.11l2.07,1.83a.19.19,0,0,0,.13,0,.21.21,0,0,0,.11-.08.16.16,0,0,0,0-.12.14.14,0,0,0-.07-.11l-2.07-1.83a.17.17,0,0,0-.1,0h0"/><path class="e4fb98a4-e956-439e-b78c-933fa9376b74" d="M138.41,225.45a.69.69,0,0,0-.22.42.64.64,0,0,0,.58.68.63.63,0,0,0,.46-.15.6.6,0,0,0,.22-.42.64.64,0,0,0-.58-.68.66.66,0,0,0-.46.15"/><path class="e4fb98a4-e956-439e-b78c-933fa9376b74" d="M140.06,219.88a.67.67,0,0,0-.22.42.64.64,0,0,0,.58.68.69.69,0,0,0,.46-.15.62.62,0,0,0,.22-.43.64.64,0,0,0-.58-.68.65.65,0,0,0-.46.16"/><path class="e4fb98a4-e956-439e-b78c-933fa9376b74" d="M277.68,141.59c-.94.15-1.86.4-2.78.61s-1.9.39-2.85.61c-1.62.37-3.2.84-4.79,1.32a1.5,1.5,0,0,1,.22.39,6.57,6.57,0,0,1,.22.67l.09.29a1.9,1.9,0,0,1-.26,1.44l0,.18.51.77.39.6,1.8-.61c1.42-.45,2.86-.85,4.3-1.24.7-.19,1.38-.4,2.07-.61a15.59,15.59,0,0,1,2.39-.63h.08l0,0,0,0a6,6,0,0,1,.72.86,13.36,13.36,0,0,1,.95,1.89,12.47,12.47,0,0,1,.49,2.49c0,.59,0,1.17-.09,1.76,0,.22,0,.43,0,.65a4,4,0,0,0,.27,1.44c.11.33.24.66.36,1,.14.49.26,1,.37,1.49a1.43,1.43,0,0,0,1.65,1.12,1.38,1.38,0,0,0,.91-.59,1.51,1.51,0,0,0,.22-1.06c-.06-.91-.13-1.81-.19-2.71A11.57,11.57,0,0,1,285,152a8.35,8.35,0,0,0,.06-1.42,10.7,10.7,0,0,0-.14-1.69,12.16,12.16,0,0,0-2.12-4.92,8.31,8.31,0,0,0-1-1.21,4.16,4.16,0,0,0-1.9-1.08,5,5,0,0,0-1.27-.16,6,6,0,0,0-.95.08m1.12,3.62.21.1-.21-.1"/><path class="e4fb98a4-e956-439e-b78c-933fa9376b74" d="M248.88,150.11c-2,.79-4,1.57-6,2.37s-4.07,1.71-6.09,2.6c-4,1.77-7.94,3.52-11.94,5.2l-3,1.22c-.92.39-1.84.79-2.77,1.15-2,.81-4.1,1.57-6.17,2.33s-4.08,1.48-6.11,2.25c-1,.38-2,.84-3,1.27l-2.59,1.15c-2,.93-4,1.86-6,2.81s-3.83,1.88-5.75,2.82-4.12,1.92-6.19,2.85-3.87,1.75-5.81,2.59c-3.95,1.71-7.86,3.49-11.79,5.25-1.92.86-3.9,1.6-5.85,2.39s-3.78,1.64-5.62,2.54-3.8,1.9-5.74,2.78c-1,.45-2,.91-3.05,1.33l-3,1.2c-1.91.74-3.79,1.56-5.7,2.3l-2.93,1.11a29.44,29.44,0,0,0-4.44,2c-.54.31-1,.64-1.57,1a4.85,4.85,0,0,0-.63.49,2.86,2.86,0,0,0-.62.85,3,3,0,0,0,.4,2.73c.46.9.95,1.77,1.38,2.68s.76,1.68,1.22,2.49.89,1.64,1.35,2.45a17.77,17.77,0,0,0,2.28,3.23,16.22,16.22,0,0,0,2.58,2.39l2,1.47a1.51,1.51,0,0,0,2.09-.4,1.53,1.53,0,0,0-.39-2.09c-.93-.67-1.9-1.31-2.79-2a18.52,18.52,0,0,1-2.44-2.87c-.41-.66-.8-1.34-1.16-2s-1-1.65-1.37-2.49-.75-1.57-1.14-2.35-.69-1.3-1-2a21.15,21.15,0,0,1,2.79-1.46c.62-.26,1.25-.48,1.88-.71.82-.3,1.67-.57,2.5-.85l-.43.15c1.06-.34,2.13-.68,3.19-1s2-.7,2.92-1.05c2.1-.77,4.23-1.48,6.32-2.29,1.85-.71,3.68-1.49,5.47-2.32,2.09-1,4.17-1.92,6.29-2.8,1.88-.78,3.81-1.44,5.7-2.21,2.08-.84,4.14-1.76,6.2-2.67,3.94-1.74,7.94-3.35,11.89-5.1l5.88-2.59c1.87-.83,3.69-1.79,5.54-2.65,3.87-1.79,7.74-3.57,11.69-5.15s8.09-2.87,12.08-4.43c4.16-1.62,8.27-3.37,12.36-5.15,1.84-.79,3.66-1.63,5.49-2.45s3.92-1.81,5.91-2.63l1.69-.7.2-.12a.17.17,0,0,0,0-.05,5.57,5.57,0,0,1,.65-1.11l.68-.78.59-.65,1.24-1.35c.91-1,1.8-2,2.74-2.94l1.1-1.12c-1.1.38-2.2.79-3.28,1.21"/><path class="e4fb98a4-e956-439e-b78c-933fa9376b74" d="M262.3,137.92c-.26.2-.51.43-.77.63l-.88.67c-.53.4-1.08.79-1.6,1.21-1,.86-2.08,1.71-3.13,2.55s-2.39,1.82-3.61,2.69l-1.72,1.22c-.56.4-1.08.83-1.6,1.28s-1.07.92-1.6,1.4l-.86.78c-.38.33-.83.61-1.24.91-1.16.83-2.29,1.68-3.46,2.49s-2.28,1.51-3.39,2.32-2.15,1.66-3.25,2.47c-.69.51-1.39,1-2.11,1.47-1.89,1.25-3.84,2.41-5.73,3.67-.27.17-.53.36-.79.54l-.27.09a3.85,3.85,0,0,0-1.58.78,1.49,1.49,0,0,0-.45.83c-.67.48-1.33,1-2,1.42l0,0a24.75,24.75,0,0,0-2,1.49,7.17,7.17,0,0,0-1.29,1.35,1.86,1.86,0,0,0-.31.83,1.35,1.35,0,0,0,.58,1.19,1.44,1.44,0,0,0,1,.19,4.24,4.24,0,0,0,.5-.18,4.59,4.59,0,0,0,.66-.42l1.95-1.34c.52-.26,1.05-.48,1.54-.77.85-.49,1.67-1.05,2.48-1.6a1.78,1.78,0,0,0,.78-.15,8.13,8.13,0,0,0,.81-.47l.08-.05.07,0c.3-.16.6-.34.9-.52l1.73-1c1.26-.72,2.49-1.46,3.71-2.23s2.52-1.71,3.75-2.62,2.36-1.66,3.54-2.5l.54-.3.25-.09.47-.16a6.92,6.92,0,0,0,.88-.39c.65-.33,1.28-.69,1.9-1.08a28,28,0,0,0,3.55-2.77c1.06-.94,2.11-1.89,3.2-2.79s2.06-1.65,3.09-2.47,2-1.53,2.94-2.36a27.28,27.28,0,0,0,2.86-2.93q.6-.7,1.14-1.44c.21-.27.41-.55.63-.81a6.26,6.26,0,0,0,.6-.76,1.7,1.7,0,0,0-.12-2,1.68,1.68,0,0,0-1.13-.57h-.14a1.75,1.75,0,0,0-1.1.42"/><path class="e4fb98a4-e956-439e-b78c-933fa9376b74" d="M264.5,139.19a2,2,0,0,0-1.23.81,1.89,1.89,0,0,0-.3,1.44l.6,2.07a20.47,20.47,0,0,0,.76,2.29,10.41,10.41,0,0,0,.89,1.64,7.06,7.06,0,0,1,.7,1.5c.26.84.52,1.68.84,2.5a20.8,20.8,0,0,0,1,2.12c.41.72.79,1.45,1.22,2.16s.82,1.44,1.23,2.17.78,1.41,1.17,2.11.67,1.33,1,2,.59,1.41.9,2.1a13.77,13.77,0,0,0,1.46,2.49,4,4,0,0,0,.47.54,1.4,1.4,0,0,0,1.63.33,1.38,1.38,0,0,0,.63-1.82,2.2,2.2,0,0,1-.15-.31,12,12,0,0,1-.2-1.2,7.33,7.33,0,0,0-.24-1,18.35,18.35,0,0,0-.84-2.5c-.27-.61-.56-1.22-.89-1.81s-.79-1.33-1.18-2c-.78-1.33-1.61-2.65-2.3-4a37.57,37.57,0,0,1-1.81-3.92c-.12-.4-.25-.81-.38-1.22a7.76,7.76,0,0,0-.71-1.74c-.26-.42-.52-.84-.76-1.28a9.49,9.49,0,0,1-.46-1.1c-.29-.93-.55-1.86-.82-2.79a2,2,0,0,0-.81-1.23,1.92,1.92,0,0,0-1.08-.34,2.19,2.19,0,0,0-.36,0"/><path class="e4fb98a4-e956-439e-b78c-933fa9376b74" d="M279.48,143.52a.61.61,0,0,0-.18,0,1.38,1.38,0,0,0-.42.11,1.52,1.52,0,0,0-.83.92,1.85,1.85,0,0,0-.07.81,2.3,2.3,0,0,0,.19.68c0,.06.07.11.1.16a1.51,1.51,0,0,0,.32.43,2.16,2.16,0,0,0,.45.36c0,.17.06.34.1.5l.12.62a1.14,1.14,0,0,0-.11.51c.12,2.2.21,4.39.19,6.6a31.27,31.27,0,0,0,.07,3.49c0,.53.13,1.05.22,1.57a4.36,4.36,0,0,0,.71,1.85,2.29,2.29,0,0,1,.1.23,1.32,1.32,0,0,0,.8.83,1.3,1.3,0,0,0,.95-.06,1.25,1.25,0,0,0,.68-1c0-.16,0-.32,0-.48a1.86,1.86,0,0,0,1.29-.94,8,8,0,0,0,.45-.93,5.72,5.72,0,0,0,.26-.83,3.64,3.64,0,0,0,.11-.93c0-.26,0-.52,0-.78,0-.49-.13-1-.21-1.45s-.17-1.14-.24-1.7a1.19,1.19,0,0,0-.47-.8c-.09-.55-.21-1.09-.34-1.63-.34-1.34-.73-2.66-1.18-4a17.74,17.74,0,0,0-.68-1.64c-.13-.27-.27-.54-.41-.81s-.15-.43-.23-.64a1.86,1.86,0,0,0-.67-.93,1.49,1.49,0,0,0-.78-.24,1.15,1.15,0,0,0-.26,0"/><path class="e4fb98a4-e956-439e-b78c-933fa9376b74" d="M137.74,208a1.39,1.39,0,0,0-.9.59,3.18,3.18,0,0,0-.16.32,1.3,1.3,0,0,0-.06.73,23.52,23.52,0,0,0,.47,4.1c.15.61.36,1.22.54,1.82s.32,1.18.46,1.77a26.58,26.58,0,0,0,1.21,4c.44,1.1.87,2.21,1.31,3.31.31.78.65,1.56,1,2.34s.69,1.7,1.08,2.52a4.81,4.81,0,0,0,.84,1.25,2.06,2.06,0,0,0,1.4.72,1.54,1.54,0,0,0,1-.34,1.56,1.56,0,0,0,.46-.7,1.23,1.23,0,0,0,.07-.42l0-.46a3.14,3.14,0,0,0-.28-.9c-.08-.2-.16-.4-.25-.6-.18-.4-.33-.82-.47-1.23v0l.08.23-.08-.23h0l0,0h0l0-.09s0,0,0,0l-.05-.13,0-.07v0c-.25-.74-.52-1.49-.83-2.21-.15-.35-.32-.68-.48-1s-.32-.73-.47-1.11c-.29-.75-.56-1.5-.87-2.24s-.57-1.43-.82-2.16a23.86,23.86,0,0,1-.74-2.63c-.23-1.08-.39-2.17-.62-3.25a.92.92,0,0,0-1-.74c0-.18,0-.35,0-.52l-.12-1.57a1.32,1.32,0,0,0-.59-.9A1.4,1.4,0,0,0,138,208a1.15,1.15,0,0,0-.26,0M144,229.75a.2.2,0,0,1,0,.07s0,0,0-.07m1.41-2.87h0m0,0h0l0-.06v.06"/><path class="e4fb98a4-e956-439e-b78c-933fa9376b74" d="M138.87,208.14a4.34,4.34,0,0,0,0,.51v0l0,.39a1,1,0,0,0-.63,1.09c.08.39.16.77.25,1.16,0,.17.07.34.1.51l.06.24a1.83,1.83,0,0,0,.17.53.86.86,0,0,0,.32.36.92.92,0,0,0,.7.15,1,1,0,0,0,.76-.84,3.54,3.54,0,0,0,0-.73,1,1,0,0,0,0-.17,2.5,2.5,0,0,0,.19-.66,4.16,4.16,0,0,0,0-1.22,4.42,4.42,0,0,0-.43-1.3.31.31,0,0,0,0-.08.68.68,0,0,0-.16-.33.75.75,0,0,0-.48-.25h-.06a.71.71,0,0,0-.71.66"/><path class="e4fb98a4-e956-439e-b78c-933fa9376b74" d="M143,207.24c-.42.23-.84.46-1.28.66l-1.12.5L138,209.53a.51.51,0,0,0,.45.91l2.53-1.12,1.12-.52c.45-.21.88-.44,1.31-.68a.49.49,0,0,0,.23-.65.52.52,0,0,0-.45-.28.54.54,0,0,0-.21.05"/><path class="e4fb98a4-e956-439e-b78c-933fa9376b74" d="M128.85,204.05a1.41,1.41,0,0,0-1.11,1.62c.1.7.2,1.4.33,2.09a11.81,11.81,0,0,0,.52,1.85c.16.51.29,1,.43,1.54s.43,1.29.65,1.94a13.94,13.94,0,0,0,.71,1.75,13,13,0,0,0,1,1.52c.24.39.45.78.65,1.19a11.21,11.21,0,0,0,1.13,1.76,11.68,11.68,0,0,0,1,1.17,7.37,7.37,0,0,1,.91,1,21.93,21.93,0,0,0,1.27,1.87,11.89,11.89,0,0,0,1.51,1.5c.48.46,1,1,1.44,1.41a22,22,0,0,0,1.91,1.42c.18.19.35.39.53.59a1.45,1.45,0,0,0,2.39-1.59c-.53-1.17-1.62-2-2.38-3-.34-.45-.67-.91-1-1.34s-.76-.77-1.11-1.18a12.89,12.89,0,0,1-1-1.39,8.17,8.17,0,0,0-1.05-1.37c-.42-.43-.86-.82-1.27-1.26a12.78,12.78,0,0,1-1-1.27c-.32-.52-.65-1-1-1.53s-.66-.79-1-1.2a24.25,24.25,0,0,1-1.2-2.39c-.21-.46-.39-.94-.56-1.41s-.34-.87-.5-1.31a20.44,20.44,0,0,1-.54-2.93,1.4,1.4,0,0,0-1.38-1.13,1,1,0,0,0-.24,0"/><path class="e4fb98a4-e956-439e-b78c-933fa9376b74" d="M127.93,205.11a.44.44,0,0,0-.15.3.48.48,0,0,0,.11.32c.33.47.66,1,1,1.4a8.63,8.63,0,0,0,1.38,1.17.44.44,0,0,0,.49-.72c-.29-.21-.57-.41-.84-.64a11.1,11.1,0,0,1-1.42-1.78.41.41,0,0,0-.29-.15h0a.48.48,0,0,0-.28.1"/><path class="e4fb98a4-e956-439e-b78c-933fa9376b74" d="M251.25,164.82a.6.6,0,0,0-.22.43.63.63,0,0,0,.58.67.66.66,0,0,0,.46-.15.63.63,0,0,0-.36-1.1.64.64,0,0,0-.46.15"/><path class="e4fb98a4-e956-439e-b78c-933fa9376b74" d="M254.54,157.5a.61.61,0,0,0-.21.42.63.63,0,0,0,.57.68.67.67,0,0,0,.47-.16.61.61,0,0,0,.21-.42.63.63,0,0,0-.57-.68.67.67,0,0,0-.47.16"/><path class="e4fb98a4-e956-439e-b78c-933fa9376b74" d="M256.55,155c-.69.33-1.38.67-2.08,1l-.76.37a5.45,5.45,0,0,0-1.85,1.45,6.33,6.33,0,0,0-1.2,2.89,9.08,9.08,0,0,0,0,2.85,4.89,4.89,0,0,0,.67,1.93,4.54,4.54,0,0,0,.48.67c.2.19.4.37.61.54s.49.26.74.39l.49.16c.67.2,1.37.34,2,.5,1.37.3,2.75.55,4.12.83a6.45,6.45,0,0,1,1,.32,3.3,3.3,0,0,1,.39.26,5.43,5.43,0,0,1,.7.81,8,8,0,0,1,.56,1,17,17,0,0,1-1.29,1.65,8.84,8.84,0,0,1-.89.84,1.69,1.69,0,0,0,.55,2.88,1.66,1.66,0,0,0,1.31-.07,6.58,6.58,0,0,0,.76-.49,9,9,0,0,0,.88-.87c.27-.3.54-.61.8-.93a12.28,12.28,0,0,0,1-1.36,3.32,3.32,0,0,0,.52-1.38,3.23,3.23,0,0,0-.19-1.19,9.57,9.57,0,0,0-1.32-2.61,7.34,7.34,0,0,0-1.29-1.38,7,7,0,0,0-2-1.09,15.92,15.92,0,0,0-1.53-.47c-.55-.16-1.1-.29-1.65-.43a25.45,25.45,0,0,1-3.2-.93l0-.08a7.34,7.34,0,0,1-.16-.84,7.71,7.71,0,0,1,.09-1.36q.07-.27.18-.54l0,0,.21-.19c.39-.23.8-.43,1.21-.62.61-.28,1.22-.58,1.82-.87a2,2,0,0,0-1.75-3.58m-1.77,7.87.14.21-.14-.21m-.11,0,.16.14a1.07,1.07,0,0,1-.16-.14m.35.27.07,0-.07,0m7.46,7.69v0h0v0m0,.07h0m0,0h0l0,0,0,0"/><path class="e4fb98a4-e956-439e-b78c-933fa9376b74" d="M253.09,173a1.75,1.75,0,0,0,.45,2.38,12.78,12.78,0,0,0,2.57,1.62c.24.07.49.12.73.17a1.79,1.79,0,0,0,.61,0,5.71,5.71,0,0,0,1.48-.23,7,7,0,0,0,1-.4,7.87,7.87,0,0,0,1.08-.73,1.56,1.56,0,0,0,.38-1.85,1.62,1.62,0,0,0-.87-.78,1.52,1.52,0,0,0-1.2.07,4.66,4.66,0,0,1-.76.41,7,7,0,0,1-.92.14l-.28,0-.07,0a18.2,18.2,0,0,1-1.79-1.22,1.52,1.52,0,0,0-.93-.3,1.79,1.79,0,0,0-1.46.75m4.41.84.06,0-.06,0"/><path class="e4fb98a4-e956-439e-b78c-933fa9376b74" d="M252.51,153.81a1.11,1.11,0,0,0-.88,1.28c.15.64.3,1.28.46,1.92.12.47.22,1,.36,1.43.31,1.05.61,2.11,1,3.16,0-.1-.07-.19-.1-.28.68,2.06,1.38,4.12,2,6.19.33,1.07.65,2.14,1,3.21.17.56.34,1.12.52,1.68s.35,1.09.57,1.62a8.26,8.26,0,0,0,.6,1.14c.24.38.49.75.75,1.12a4,4,0,0,1,.23.46.83.83,0,0,0,.89.45.81.81,0,0,0,.38-.19.78.78,0,0,0,.28-.55,6.8,6.8,0,0,0-.11-1,5.83,5.83,0,0,0-.22-.71c-.13-.36-.3-.71-.44-1.06-.25-.61-.46-1.23-.67-1.85-.29-.9-.59-1.8-.88-2.69s-.61-1.9-.92-2.84l.1.29q-.94-2.85-1.91-5.7c-.28-1-.57-1.91-.86-2.86-.14-.43-.23-.89-.34-1.33-.16-.67-.33-1.34-.48-2a1.13,1.13,0,0,0-1.08-.89l-.2,0m2.88,6.81a1.72,1.72,0,0,0,.07.21,1.72,1.72,0,0,1-.07-.21m3.7,11.25a.49.49,0,0,0,0,.11l0-.11"/><path class="e4fb98a4-e956-439e-b78c-933fa9376b74" d="M256.22,152.74a1,1,0,0,0-.81,1.18c.15.73.31,1.45.47,2.18.1.41.18.83.3,1.23.31,1.12.61,2.25.95,3.36.64,2.14,1.27,4.28,2,6.4.44,1.36.9,2.7,1.4,4,.19.53.41,1.05.62,1.56a11.18,11.18,0,0,0,1.11,2.11.93.93,0,0,0,1.11.22.94.94,0,0,0,.46-.52,1,1,0,0,0,0-.71l0-.1c-.2-.7-.41-1.4-.68-2.08s-.49-1.24-.74-1.86-.48-1.23-.72-1.85-.42-1.21-.63-1.81c-.27-.84-.55-1.68-.81-2.53-.35-1.09-.71-2.18-1-3.28s-.65-2.27-1-3.41c-.12-.41-.2-.83-.29-1.24-.16-.69-.32-1.38-.45-2.08a1,1,0,0,0-1-.82h-.18M261,166.2l0,.09,0-.09"/><path class="e4fb98a4-e956-439e-b78c-933fa9376b74" d="M229.38,49.64a5.64,5.64,0,0,0-1.24.41,7.27,7.27,0,0,0-1.42.84c-.21.14-.42.28-.63.44A19.31,19.31,0,0,0,224,53.16c-.7.71-1.35,1.47-2,2.22-1.35,1.49-2.73,3-4.12,4.42-.73.76-1.48,1.53-2.26,2.26s-1.6,1.39-2.42,2.06c-1.67,1.34-3.41,2.6-5.11,3.91s-3.59,2.82-5.46,4.14l-1.21.84c-4,2.51-8,4.93-11.93,7.53-1.85,1.23-3.66,2.5-5.44,3.83s-3.6,2.66-5.43,3.95c-2.53,1.78-5,3.61-7.57,5.4-3.46,2.24-7.1,4.21-10.72,6.18l-3.18,1.72c-1,.53-2,1.07-3,1.55s-2,.93-3.05,1.34c-.84.32-1.7.62-2.55.91a55.06,55.06,0,0,1-6.19,1.34c-2.31.39-4.63.74-7,1.1s-4.46.83-6.7,1.24q-3.59.69-7.18,1.28c-1.61.27-3.22.48-4.84.72s-3.21.52-4.81.84l-2.77.55c-.77.15-1.53.35-2.29.56-.56.16-1.11.36-1.66.55a6,6,0,0,0-1.66,1,4.3,4.3,0,0,0-1.82,2.74,5.51,5.51,0,0,0,.29,2.21c.26.83.55,1.66.83,2.48a19.56,19.56,0,0,1,.7,2.81c.18,1,.3,2.09.44,3.14s.32,2.32.56,3.47.46,2,.72,3c.57,2.21,1.21,4.39,1.67,6.61s1,4.59,1.35,6.9q.72,4.08,1.3,8.17c.2,1.39.36,2.78.52,4.18.13,1.09.2,2.2.27,3.3,0,1.39.08,2.79.21,4.17.15,1.59.32,3.16.5,4.74l-.13.1a2,2,0,0,0-.68,1.34,14.71,14.71,0,0,0,.12,1.88,8.11,8.11,0,0,0,.61,2,9.59,9.59,0,0,0,1.22,2,8.16,8.16,0,0,0,1.62,1.54,8.32,8.32,0,0,0,2.11,1,9.7,9.7,0,0,0,1.61.5c.66.15,1.32.31,2,.4a13.5,13.5,0,0,0,1.8.13,15.33,15.33,0,0,0,3.75-.4c2.25-.53,4.47-1.2,6.67-1.93l7.07-2.34c4.48-1.49,9-2.95,13.41-4.59q3.36-1.23,6.66-2.59c1.08-.44,2.15-.92,3.22-1.4s2.09-1,3.13-1.54,1.86-.95,2.81-1.38l3.5-1.57c2-.88,3.92-1.77,5.9-2.6,2.25-.93,4.48-1.88,6.76-2.73s4.77-1.8,7.15-2.72c1-.4,2-.87,3.07-1.3s1.78-.78,2.66-1.19l7.09-3.35c4.07-1.95,8.17-3.81,12.21-5.82s8.22-4.14,12.26-6.34c2.31-1.26,4.62-2.54,6.82-4,1.93-1.29,3.86-2.57,5.73-4s3.85-2.91,5.74-4.41a65.54,65.54,0,0,0,4.88-4.39c.55-.55,1.07-1.11,1.59-1.69a13.56,13.56,0,0,0,1.21-1.51,9.52,9.52,0,0,0,.86-1.79,9.77,9.77,0,0,0,.41-1.76,15.13,15.13,0,0,0,.19-1.78,29.36,29.36,0,0,0-.13-4,28.52,28.52,0,0,0-.47-3.19c-.53-2.55-1.09-5.1-1.75-7.62-.34-1.29-.67-2.59-1.07-3.86-.44-1.43-.91-2.84-1.39-4.25-.69-2.11-1.39-4.22-2-6.34s-1.32-4.41-1.94-6.62S246.1,74.13,245.4,72c-.23-.72-.44-1.47-.71-2.17S244.2,68.58,244,68c-.18-.46-.41-.9-.62-1.35s-.47-1-.72-1.51c-.92-1.81-1.91-3.57-3-5.31l-1.51-2.45c-.62-1-1.21-2-1.9-3-1-1.42-2-3.06-3.5-4a4.93,4.93,0,0,0-2-.74h-.43a8.85,8.85,0,0,0-.89,0m.27,4.83.1,0-.1,0m.4.17h0m.06,0a17.82,17.82,0,0,1,1.32,1.78l.1.16.29.43c0-.07-.09-.14-.14-.21l.23.35,0,0c1.41,2.38,2.76,4.79,4,7.26.63,1.27,1.23,2.56,1.78,3.86.31.71.6,1.43.9,2.15.2.5.37,1,.55,1.53.29.95.58,1.89.83,2.85.33,1.24.65,2.48,1,3.72.54,2.24,1.13,4.46,1.76,6.68s1.23,4.24,1.87,6.36,1.39,4.34,2,6.55,1.18,4.71,1.67,7.1a53.11,53.11,0,0,1,1.12,7,19.24,19.24,0,0,1-.09,3.72c-.05.18-.11.35-.17.53A16.27,16.27,0,0,1,248,118c-.93,1-1.88,1.94-2.86,2.87-1.16,1.09-2.38,2.1-3.62,3.1-2.35,1.89-4.79,3.69-7.27,5.41l.44-.29c-.83.56-1.64,1.14-2.49,1.65l-3.35,2c-.34.19-.69.36-1,.54l-2.29,1.23c-.83.45-1.67.88-2.52,1.31-4.12,2.12-8.27,4.19-12.48,6.14l-7.08,3.25c-2,.9-3.95,1.83-5.93,2.74-2.15,1-4.28,1.95-6.45,2.86-1,.4-1.91.81-2.87,1.18l-3.83,1.46c-2,.76-4.06,1.46-6.05,2.28-2.41,1-4.81,2-7.19,3.08q-3.18,1.4-6.34,2.85c-.92.42-1.82.92-2.74,1.39-1.08.55-2.17,1.09-3.28,1.6-4.16,1.89-8.45,3.49-12.73,5.1s-8.85,3.19-13.27,4.78c-2.26.81-4.52,1.62-6.8,2.4-.79.26-1.58.52-2.39.71a21.13,21.13,0,0,1-2.72.45,14.9,14.9,0,0,1-2.5-.23,12.1,12.1,0,0,1-1.79-.59c-.25-.16-.49-.32-.72-.5a11.5,11.5,0,0,1-.94-1.15,8.13,8.13,0,0,1-.43-.83,2.64,2.64,0,0,0,1.42-1,2.74,2.74,0,0,0,.41-2c-.24-2.11-.46-4.22-.63-6.35-.05-1.17-.1-2.33-.2-3.5s-.22-2.39-.38-3.58c-.29-2.26-.64-4.5-1-6.74s-.8-4.63-1.3-6.93-1-4.63-1.64-6.91a91.24,91.24,0,0,1-2.61-9.73c-.26-1.56-.42-3.15-.77-4.69a46.72,46.72,0,0,0-1.5-4.75c0-.14-.08-.29-.12-.43l.12-.09a3.83,3.83,0,0,1,.65-.3,64.52,64.52,0,0,1,8.52-1.57c2.25-.32,4.53-.44,6.78-.7,2.43-.29,4.85-.6,7.28-1,2.14-.3,4.27-.65,6.42-.88,2.39-.25,4.76-.54,7.14-.87a56.62,56.62,0,0,0,6.46-1.11,35.08,35.08,0,0,0,3.73-1.18c1.13-.41,2.23-.84,3.32-1.34,2.21-1,4.33-2.22,6.47-3.36,3.88-2.07,7.79-4.14,11.49-6.53,2.1-1.35,4.1-2.87,6.15-4.32,1.83-1.29,3.67-2.56,5.48-3.88s3.42-2.58,5.16-3.82q2.37-1.7,4.78-3.31c1.86-1.19,3.73-2.37,5.57-3.57,2.07-1.33,4.13-2.66,6.09-4.15s3.57-2.85,5.35-4.27,3.29-2.68,4.86-4.1a61.56,61.56,0,0,0,4.95-5.26c1-1.07,1.91-2.14,2.82-3.26.74-.91,1.48-1.84,2.25-2.73a17.75,17.75,0,0,1,2.13-1.93l0,0m1,1.3a.21.21,0,0,0,0,.06l0-.06m0,.06v0a2.14,2.14,0,0,1,.13.19l-.14-.21M106.06,117.67v0M231.68,56.85l-.23-.34.23.34"/><path class="e4fb98a4-e956-439e-b78c-933fa9376b74" d="M175.41,108.27a6.94,6.94,0,0,0-3.21,1.5,9.13,9.13,0,0,0-2.06,2.19,12.93,12.93,0,0,0-1.49,3.17,21.52,21.52,0,0,0-.86,3.43,23.32,23.32,0,0,0,0,7.41,12.72,12.72,0,0,0,2,4.65A36.24,36.24,0,0,0,172,133.7a26,26,0,0,0,2.22,2.36c.78.77,1.55,1.54,2.36,2.29.51.48,1,.93,1.59,1.37a6.67,6.67,0,0,0,.61.43,8,8,0,0,0,2.16,1.08,11.62,11.62,0,0,0,4.91.18,10,10,0,0,0,2.25-.73,16.48,16.48,0,0,0,1.69-.82,20.86,20.86,0,0,0,3.18-2,11.81,11.81,0,0,0,1.75-1.64,10.1,10.1,0,0,0,1.7-3.67,21.51,21.51,0,0,0,.73-3.55,15.85,15.85,0,0,0,0-3.77,10.19,10.19,0,0,0-.48-2c-.16-.49-.32-1-.49-1.46a10.73,10.73,0,0,0-1.32-2.42,16.6,16.6,0,0,0-2.14-2.51c-.43-.43-.87-.84-1.3-1.26-.68-.64-1.38-1.26-2.09-1.86a29.56,29.56,0,0,0-4.05-3.1,13.9,13.9,0,0,0-2.33-1.13,10.43,10.43,0,0,0-1.83-.46l-.34,0a1.26,1.26,0,0,0-.43-.19c-.72-.16-1.45-.32-2.17-.46a8.78,8.78,0,0,0-1.45-.12,10.66,10.66,0,0,0-1.26.08m5.08,5.2a12.88,12.88,0,0,1,1.81.62,34.81,34.81,0,0,1,5.78,4.32l1,.94a16.84,16.84,0,0,1,2.34,2.58,12.77,12.77,0,0,1,.86,1.69c.15.35.26.73.38,1.1l-.18-.54a15,15,0,0,1,.47,2.29c0,.53,0,1-.05,1.58a12,12,0,0,1-.24,1.56,17.58,17.58,0,0,1-1,3.1c-.12.2-.25.39-.39.58a13.69,13.69,0,0,1-1.38,1.14,25.44,25.44,0,0,1-4.29,2.18,8.75,8.75,0,0,1-1.34.24,13.64,13.64,0,0,1-1.81-.11l-.45-.16a14.68,14.68,0,0,1-2.2-1.57c-1.11-1-2.2-2-3.26-3.11-.57-.58-1.1-1.18-1.62-1.8s-.83-1.13-1.23-1.71a15.42,15.42,0,0,1-1.44-2.65,16.15,16.15,0,0,1-.47-2.78c0-.73,0-1.47,0-2.2,0-.5.06-1,.12-1.48s.12-.74.19-1.11c.15-.61.31-1.22.49-1.82a12.23,12.23,0,0,1,.63-1.59l.24-.4a3,3,0,0,0,.26.21,1.93,1.93,0,0,0,1.42.3l.48-.16a1.75,1.75,0,0,0,.66-.54c.2-.1.39-.18.59-.26a15.64,15.64,0,0,1,2.7-.5,7.14,7.14,0,0,1,.93.06"/><path class="e4fb98a4-e956-439e-b78c-933fa9376b74" d="M224.15,71.33a5.32,5.32,0,0,0-.67.14,5.67,5.67,0,0,0-2,1.17c-.37.32-.71.7-1.05,1a15.12,15.12,0,0,0-1.27,1.49,12,12,0,0,0-1,1.53c-.15.29-.3.59-.44.89a3.21,3.21,0,0,0-.15.53,2.93,2.93,0,0,0-.11,1.25,4,4,0,0,0,.35,1.08c.14.23.29.46.45.68a3.81,3.81,0,0,0,.75.75,4.75,4.75,0,0,0,1.19.6,7,7,0,0,0,1.57.26l1.34.08a43.87,43.87,0,0,1,5,.45,9.83,9.83,0,0,1,1.72.62,10.4,10.4,0,0,1,.9.56l.16.18a.47.47,0,0,0,0,.1c0,.09,0,.17,0,.25v.07a5.31,5.31,0,0,1-.22.6,6.86,6.86,0,0,1-.53.76,12.31,12.31,0,0,1-1.53,1.35,6.74,6.74,0,0,1-.89.45,10.86,10.86,0,0,1-1.4.29l-.09,0c-.16-.11-.32-.21-.47-.33s-.39-.43-.58-.65a2,2,0,0,0-2.32-.47,1.94,1.94,0,0,0-1,1.09,1.89,1.89,0,0,0,.08,1.51,9.21,9.21,0,0,0,1.35,1.8,6.09,6.09,0,0,0,1,.79c.23.12.46.24.7.35l.22.08.77.17a8.59,8.59,0,0,0,2.37-.27,10.64,10.64,0,0,0,1.35-.44,7.26,7.26,0,0,0,1.37-.81,10.67,10.67,0,0,0,1.66-1.41c.33-.34.64-.7.94-1.06a6.57,6.57,0,0,0,.86-1.41,7.22,7.22,0,0,0,.38-1,4.93,4.93,0,0,0,.18-1.87,4.82,4.82,0,0,0-.31-1.35,4.92,4.92,0,0,0-.84-1.39A6.32,6.32,0,0,0,232,80.43a12.21,12.21,0,0,0-2.6-1.05,19.64,19.64,0,0,0-4-.53l-1.64-.08c-.84,0-1.7,0-2.52-.18h-.05l0-.21a11,11,0,0,1,.71-1.8,11.82,11.82,0,0,1,1.35-2,5.32,5.32,0,0,1,.61-.55l.46-.22.25-.06.49.07a3.39,3.39,0,0,1,.48.17c.25.14.48.3.71.46a1.14,1.14,0,1,0,1.28-1.88,9.68,9.68,0,0,0-.82-.54,5.43,5.43,0,0,0-1.17-.48,5.9,5.9,0,0,0-.93-.19l-.53,0m-3,7.09s0,.08,0,.12h0v-.11m-.19,0,.11,0-.11,0m.24.18a.56.56,0,0,1,.05.08A.35.35,0,0,1,221.23,78.65Zm.15,0,.07,0-.07,0m-.16.08.06.19a1.15,1.15,0,0,1-.06-.17Zm4.87,9.74h0m.44,0h0"/><path class="e4fb98a4-e956-439e-b78c-933fa9376b74" d="M220.5,70.79a.6.6,0,0,0-.2.55c0,.3.09.6.14.9l.09.74a.52.52,0,0,0,.58.42l.3,1.3c.14.65.28,1.29.43,1.93.21.94.45,1.89.68,2.83.11.45.27.9.4,1.34s.26.9.4,1.35c.3.93.62,1.86.9,2.79s.49,1.64.73,2.46.4,1.45.6,2.17.36,1.38.54,2.07c.09.37.19.74.29,1.1.05.19.1.37.16.55a6,6,0,0,0,.68,1.63l.19.28a1.25,1.25,0,0,0,.54.37,1.34,1.34,0,0,0,1,0,1.32,1.32,0,0,0,.65-.74,1.27,1.27,0,0,0-.06-1,12.33,12.33,0,0,1-.86-2.13l-.45-1.28c-.36-1.06-.73-2.11-1.11-3.17-.68-1.88-1.41-3.74-2.14-5.6-.32-.83-.61-1.67-.92-2.5-.29-1-.6-2-.87-3l-.58-2.19c-.12-.47-.26-.94-.4-1.4a9,9,0,0,0-.41-1.06,2.72,2.72,0,0,0-.32-.51,1.19,1.19,0,0,0-.42-.26.57.57,0,0,0-.18,0,.62.62,0,0,0-.4.15"/><path class="e4fb98a4-e956-439e-b78c-933fa9376b74" d="M224.34,68.5a1,1,0,0,0-.3.69,3.57,3.57,0,0,0,0,.8,8.27,8.27,0,0,0,.12,1c.13.72.31,1.45.49,2.16.39,1.49.85,3,1.3,4.43.27.87.54,1.73.82,2.6.15.45.29.89.43,1.34s.36,1,.54,1.45l.57,1.57c.15.4.33.78.49,1.18.4,1,.81,1.93,1.22,2.89.75,1.77,1.41,3.57,2.07,5.37.16.45.32.9.47,1.36l0,.06.12.36a1.4,1.4,0,0,0,.47.55,1.43,1.43,0,0,0,2-.37,1.39,1.39,0,0,0,.24-.68,1.35,1.35,0,0,0-.14-.74,27.26,27.26,0,0,0-1.15-2.87q-.61-1.31-1.32-2.58c-.51-.92-1-1.83-1.56-2.74-.2-.34-.37-.69-.56-1l-.78-1.47c-.14-.27-.26-.56-.39-.84l-.72-1.55c-.33-.71-.6-1.43-.89-2.16s-.52-1.32-.76-2c-.37-1-.75-2-1.09-3.08l0,.1c-.27-.83-.53-1.66-.76-2.5-.11-.43-.24-.86-.33-1.3a7.37,7.37,0,0,1-.14-1.15,1.62,1.62,0,0,1,0-.22l.06.07.19.33a.36.36,0,0,0,.48.16.35.35,0,0,0,.16-.47c-.13-.21-.25-.42-.4-.62a.72.72,0,0,0-.45-.31h0a.86.86,0,0,0-.49.21m.5.63h0s0,.06,0,.09a.29.29,0,0,1,0-.09m7.66,26a.84.84,0,0,1,.05.17.84.84,0,0,0-.05-.17M226,74.2v0"/><path class="e4fb98a4-e956-439e-b78c-933fa9376b74" d="M132,152.1a11,11,0,0,0-2.22.24,6.24,6.24,0,0,0-2.41,1.15,21.74,21.74,0,0,0-2.58,2.22c-.59.57-1.19,1.13-1.73,1.75a5.16,5.16,0,0,0-.61.84,3.32,3.32,0,0,0-.46,1.2,1.37,1.37,0,0,0,0,.57l.06.17a1.62,1.62,0,0,0,.35.75,2.72,2.72,0,0,0,1.14.81,1.91,1.91,0,0,0,.41.11,4.67,4.67,0,0,0,.65.13,6.75,6.75,0,0,0,1.42,0,15.67,15.67,0,0,0,2.25-.43l2.06-.45c.6-.13,1.2-.22,1.8-.33.26,0,.53-.07.79-.11s.66-.09,1-.12l.16.06,0,0c.1.11.2.23.29.35a5.59,5.59,0,0,1,.32.65,1.59,1.59,0,0,1,.06.3,4.38,4.38,0,0,1,0,.51,5.83,5.83,0,0,1-.22.63,7.17,7.17,0,0,1-.52.71,11.46,11.46,0,0,1-1,1c-.38.31-.78.58-1.18.85s-1,.62-1.53.93a13.94,13.94,0,0,1-1.71.9,1.7,1.7,0,0,0-.92,1.84,1.72,1.72,0,0,0,.71,1.09,1.64,1.64,0,0,0,1.27.26,9,9,0,0,0,1.86-.73l.85-.47a22.54,22.54,0,0,0,2.18-1.41,11.52,11.52,0,0,0,1.81-1.6c.26-.29.52-.59.75-.9a5.46,5.46,0,0,0,.68-1.2,5.12,5.12,0,0,0,.33-1.14,4.73,4.73,0,0,0,.11-1.24,4.17,4.17,0,0,0-.06-.71c-.06-.24-.13-.46-.21-.69a6.2,6.2,0,0,0-.56-1.16,6,6,0,0,0-.82-1.06c-.16-.14-.33-.29-.5-.42a3.53,3.53,0,0,0-.81-.44,2,2,0,0,0-.47-.15,2.53,2.53,0,0,0-.66-.11l-.69,0-.5.06-1,.13c-.63.09-1.26.22-1.88.34s-1.18.26-1.78.4c-.87.2-1.73.44-2.61.58.24-.32.5-.62.75-.92a18.15,18.15,0,0,1,2.83-2.64,6.52,6.52,0,0,1,.92-.45,5.71,5.71,0,0,1,.82-.18l.74-.06h.11a1.36,1.36,0,0,0,.89-.29,1.23,1.23,0,0,0,.41-.81,1.21,1.21,0,0,0-1.07-1.3h0m2.25,8.65.08.07Z"/><path class="e4fb98a4-e956-439e-b78c-933fa9376b74" d="M124.51,149.81a1.3,1.3,0,0,0-.84.55,1.24,1.24,0,0,0-.2,1c1,3.1,2,6.19,2.86,9.34s1.59,6.14,2.39,9.21c.29,1.12.65,2.21,1,3.3l0,.09c0,.11.08.23.11.34a1.42,1.42,0,0,0,.45.52,1.34,1.34,0,0,0,2.07-1.36,17.17,17.17,0,0,0-.55-2.25c-.22-.76-.45-1.51-.66-2.26-.44-1.49-.87-3-1.29-4.49-.38-1.34-.72-2.69-1.11-4s-.77-2.71-1.2-4.05c-.52-1.61-1-3.23-1.57-4.84,0-.11-.07-.22-.11-.33a1.28,1.28,0,0,0-.44-.51,1.36,1.36,0,0,0-.73-.22l-.24,0"/><path class="e4fb98a4-e956-439e-b78c-933fa9376b74" d="M127.93,147.55a14.77,14.77,0,0,0,.51,5c.18.83.38,1.64.59,2.46.29,1.13.56,2.25.88,3.37s.65,2.3,1,3.44.73,2.45,1.08,3.68a63.2,63.2,0,0,1,1.43,6.38,1.21,1.21,0,0,0,1.4.95,1.22,1.22,0,0,0,.77-.5,1.24,1.24,0,0,0,.19-.9,23.05,23.05,0,0,0-.6-2.86c-.25-.93-.52-1.86-.82-2.77q-.81-2.46-1.65-4.91c-.42-1.31-.85-2.62-1.21-3.95-.26-1-.52-1.93-.79-2.9-.16-.61-.3-1.22-.44-1.83a20.62,20.62,0,0,1-.56-3.31,8,8,0,0,1,.06-1.19.92.92,0,0,0-.84-1h-.07a.94.94,0,0,0-.92.84"/><path class="e4fb98a4-e956-439e-b78c-933fa9376b74" d="M246.05,77.38a.63.63,0,0,0-.21.43.62.62,0,0,0,.57.67.67.67,0,0,0,.47-.15.63.63,0,0,0-.36-1.1.72.72,0,0,0-.47.15"/><path class="e4fb98a4-e956-439e-b78c-933fa9376b74" d="M261.19.05a5.34,5.34,0,0,0-1.31.32,5,5,0,0,0-2.47,2,5.77,5.77,0,0,0-.8,3.12,33,33,0,0,0,.24,3.71c.11,1.2.28,2.39.42,3.58s.25,2.39.32,3.58c0,.9.09,1.8.13,2.69a26.75,26.75,0,0,1,0,3c-.06,1.08-.11,2.15-.1,3.23,0,2.23.21,4.46.22,6.68,0,2.41,0,4.82,0,7.23,0,2.24-.33,4.49-.56,6.72-.16,1.6-.28,3.22-.38,4.83-.05.81-.07,1.64-.19,2.44s-.24,1.39-.38,2.08c-.35,1.29-.79,2.55-1.25,3.81-.25.67-.51,1.33-.78,2s-.52,1.12-.8,1.66c.07-.14.14-.29.22-.43-.66,1.23-1.36,2.44-2.06,3.65s-1.41,2.51-2.11,3.77c-1.41,2.55-2.87,5.07-4.28,7.61a2.18,2.18,0,0,0-.33,1.59,2.13,2.13,0,0,0,.88,1.36l.19.11a1.74,1.74,0,0,0-.78.39,1.81,1.81,0,0,0-.17,2.54,16.46,16.46,0,0,0,1.23,1.13,4.89,4.89,0,0,0,1.22.64,14.57,14.57,0,0,0,1.71.63,18.27,18.27,0,0,0,3.44.79c1,.13,2,.2,3.07.26l3.26.23a26.88,26.88,0,0,0,3.7,0c1.12-.08,2.23-.19,3.35-.33,2.17-.26,4.31-.65,6.46-1.06a82.86,82.86,0,0,0,13.61-3.49A22.64,22.64,0,0,0,289,80.82c.47-.27.94-.53,1.41-.81s1.15-.78,1.71-1.19a27.79,27.79,0,0,0,2.29-1.9,33,33,0,0,0,2.4-2.62A19.37,19.37,0,0,0,300,69.45c.21-.47.39-1,.55-1.43a9.66,9.66,0,0,0,.41-1.75,8.47,8.47,0,0,0,0-2,8.71,8.71,0,0,0-.44-1.88c-.2-.6-.41-1.17-.65-1.75a6.87,6.87,0,0,0-1.36-2.08,5.8,5.8,0,0,0-3.93-1.75,8.19,8.19,0,0,0-2.59.36,25.82,25.82,0,0,0,1.23-3.16c.28-.82.54-1.64.74-2.49a20,20,0,0,0,.43-2.76c.1-1.06.14-2.14.19-3.2s.12-2.3.16-3.45c.09-2.33.28-4.67.17-7a15.89,15.89,0,0,0-.48-3.56A17.35,17.35,0,0,0,293,28.12,9,9,0,0,0,290.62,25a4.91,4.91,0,0,0-1.73-.85,4.41,4.41,0,0,0-1-.15,9.59,9.59,0,0,0-1.07.06,7,7,0,0,0-1.88.56c-.31.12-.6.28-.9.42s-.45.24-.67.36a6.47,6.47,0,0,0-1.64,1.2,9.8,9.8,0,0,0-.9,1.14c0-.38-.07-.76-.11-1.14-.41-4.25-1.81-8.27-3.14-12.29,0,.11.07.22.11.33a29.1,29.1,0,0,0-1.28-3.29c-.23-.49-.46-1-.7-1.45a16.7,16.7,0,0,0-1.14-1.85,22.81,22.81,0,0,0-2-2.59A19.93,19.93,0,0,0,269.77,3l-1.31-1c-.38-.27-.76-.52-1.15-.77s-.81-.43-1.22-.64a5.13,5.13,0,0,0-1.32-.39A13.39,13.39,0,0,0,263.1,0l-.69,0h-.22c-.34,0-.69,0-1,.05m.49,4.3a11.26,11.26,0,0,1,1.73.17,6.32,6.32,0,0,1,.84.27,19.22,19.22,0,0,1,1.92,1.44,25.89,25.89,0,0,1,1.95,2,21.82,21.82,0,0,1,1.56,2.12,25.25,25.25,0,0,1,1.59,2.94,29.59,29.59,0,0,1,1.21,3c.35,1.12.72,2.24,1,3.37.38,1.36.74,2.72,1.08,4.09a28.91,28.91,0,0,1,.62,3.91q.21,2.13.36,4.26c.07,1.27.15,2.54.22,3.81,0,.61.09,1.22.16,1.83a5.82,5.82,0,0,0,.17.91,3.12,3.12,0,0,0,1.25,2.1,2.23,2.23,0,0,0,1.09.38,2.27,2.27,0,0,0,1.67-.54c.83-.7.93-2,1.26-2.93.27-.81.56-1.61.85-2.42.51-1.45,1-2.9,1.68-4.3a9.24,9.24,0,0,1,.73-1.11l.27-.23a12,12,0,0,1,1.84-.89c.21-.05.43-.1.65-.13h.26l.17.12a4.12,4.12,0,0,1,.33.4,14.8,14.8,0,0,1,1.28,2.77,10,10,0,0,1,.3,1.23c.07.45.13.9.17,1.36,0,1.22,0,2.44-.07,3.66s-.11,2.62-.18,3.93-.13,2.76-.2,4.15a34,34,0,0,1-.36,4.27c-.2.81-.45,1.61-.72,2.4s-.62,1.89-1,2.8c-.88,1.64-1.9,3.2-2.84,4.8-.1.17-.2.34-.29.51a4.44,4.44,0,0,0-.49,1.36,3.16,3.16,0,0,0,0,1,2.53,2.53,0,0,0,.56,1.12,2.26,2.26,0,0,0,1,.65,2.34,2.34,0,0,0,1.23.08,3.21,3.21,0,0,0,1.28-.67c.28-.2.55-.48.81-.71l.56-.48c.41-.36.83-.71,1.27-1a13.14,13.14,0,0,1,2.1-1,9,9,0,0,1,1.64-.35,5.87,5.87,0,0,1,.59,0l.24.08a4,4,0,0,1,.5.34,5.2,5.2,0,0,1,.38.44,11.14,11.14,0,0,1,.88,2,9.47,9.47,0,0,1,.3,1.48,8,8,0,0,1-.05,1,12.8,12.8,0,0,1-.8,2c-.31.55-.65,1.08-1,1.61s-.79,1-1.2,1.47c-.77.85-1.57,1.69-2.42,2.46a25.63,25.63,0,0,1-2.76,2.09,29.46,29.46,0,0,1-5.31,2.47c-1.7.53-3.41,1-5.15,1.4s-3.73.83-5.6,1.22a85.37,85.37,0,0,1-11,1.81c-1.65,0-3.31-.13-5-.21a41.47,41.47,0,0,1-4.86-.34c-.65-.16-1.28-.36-1.92-.56a18.82,18.82,0,0,1-2.32-.83l-.27-.17-.06,0h.05a2.06,2.06,0,0,0,1.36-.89q1.68-3,3.49-6c1.15-1.88,2.24-3.79,3.4-5.66a43.83,43.83,0,0,0,3.37-6.07c.45-1.06.85-2.14,1.25-3.22a23.56,23.56,0,0,0,1-3.7c.11-.55.22-1.09.32-1.64s.11-1.1.15-1.65c.09-1.19.19-2.39.29-3.59.18-2.24.45-4.47.61-6.7s.09-4.47.09-6.69-.06-4.62-.18-6.93c0-.51-.05-1-.08-1.51,0-.81-.06-1.61-.06-2.42s.05-1.65,0-2.48c0-1.84-.24-3.69-.39-5.53-.26-3.31-.92-6.57-1.15-9.88a6.88,6.88,0,0,1,0-1.2,1.87,1.87,0,0,1,.07-.22l.09-.07.19-.1.34-.05"/><path class="e4fb98a4-e956-439e-b78c-933fa9376b74" d="M103.7,140.39c-.52.54-1,1.07-1.55,1.62-.23.23-.45.47-.68.71l-.42.46c-.18.2-.35.41-.53.62a.18.18,0,0,0,0,.24.15.15,0,0,0,.13,0,.34.34,0,0,0,.11-.07l.3-.36,0,0c.12-.14.25-.27.37-.4l.3-.31.71-.72,1.51-1.56a.22.22,0,0,0,.06-.13.2.2,0,0,0,0-.15.24.24,0,0,0-.16-.07.21.21,0,0,0-.13,0"/><path class="e4fb98a4-e956-439e-b78c-933fa9376b74" d="M23.24,124.2a5.47,5.47,0,0,0-1.66.58,4.91,4.91,0,0,0-1.74,1.71,8.92,8.92,0,0,0-1.09,3,13,13,0,0,0-.1,3.12c.06,1.18.12,2.37.26,3.54.1.81.19,1.62.37,2.42A22,22,0,0,0,20,141a43.72,43.72,0,0,0,2.69,6.49A32,32,0,0,0,25,151.15c.59.82,1.22,1.62,1.88,2.39s1.42,1.68,2.18,2.49l1.26,1.34c.38.41.82.78,1.22,1.17.83.79,1.7,1.55,2.56,2.31l-.12-.1c1.23,1.09,2.47,2.18,3.74,3.21l1.5,1.2c-.14,0-.29.07-.43.12a16.77,16.77,0,0,0-3.3,1.4,32.71,32.71,0,0,0-3.12,2,14.43,14.43,0,0,0-2.91,3c-.65.83-1.26,1.69-1.91,2.51s-1.3,1.57-1.92,2.38a7.53,7.53,0,0,0-.95,1.74l-.12.53a2,2,0,0,0-.05.94,3.08,3.08,0,0,0,.27,1,7,7,0,0,0,1.34,1.82A8.83,8.83,0,0,0,28,184c1.16.65,2.36,1.21,3.58,1.75a24.76,24.76,0,0,0,5.87,1.8,28.34,28.34,0,0,0,6,.42c2.36-.08,4.69-.32,7-.61.86-.1,1.72-.24,2.57-.41a19.42,19.42,0,0,0-1,2.65,15.7,15.7,0,0,0-.69,4.36,19.58,19.58,0,0,0,.13,2,8.93,8.93,0,0,0,.75,2.47,9.4,9.4,0,0,0,.94,1.58,8.21,8.21,0,0,0,1.49,1.57,7.83,7.83,0,0,0,1.79,1.1,7.31,7.31,0,0,0,1.83.5,3.88,3.88,0,0,0,.9,0,6.79,6.79,0,0,0,1.28-.16,8.91,8.91,0,0,0,2.38-1,25.68,25.68,0,0,0,3.85-2.87c.84-.72,1.67-1.46,2.52-2.18,1.3-1.1,2.67-2.14,4-3.15s2.85-2,4.17-3.08,2.71-2.25,4-3.48c.63-.62,1.25-1.23,1.86-1.86s1.34-1.48,2-2.23l1-1.15c-.15.17-.31.34-.46.52.58-.65,1.14-1.31,1.7-2,1.55-1.71,3.16-3.36,4.68-5.09A31.15,31.15,0,0,0,94.21,173a30.13,30.13,0,0,0,1.64-2.66c1.08-1.86,2.13-3.73,3.21-5.58.54-.92,1.1-1.82,1.65-2.74s1.12-1.91,1.69-2.85c.33-.55.65-1.11,1-1.65s.76-1.13,1.14-1.7c.78-1.16,1.54-2.33,2.25-3.54.35-.6.67-1.2,1-1.79s.69-1.11,1-1.67q.28-.5.54-1a5.45,5.45,0,0,0,.44-1.49,8.91,8.91,0,0,0,.14-1.78,8.45,8.45,0,0,0-.34-2.32,2.85,2.85,0,0,0,.6-1.55,3,3,0,0,0-2.72-3.22l-1.61-.12a17,17,0,0,0-3.35.09,5.58,5.58,0,0,0-1,.23,7.49,7.49,0,0,0-1.7.72c-.39.25-.78.51-1.16.78a13.52,13.52,0,0,1-2.37,1c-1.26.37-2.52.72-3.81,1a26.88,26.88,0,0,1-3.91.43c-2.08,0-4.15,0-6.22-.1-1,0-2.09-.08-3.12-.2s-2.12-.29-3.17-.48c-.8-.19-1.59-.38-2.4-.54S72,140,71.07,139.9c-1.64-.21-3.31-.24-5-.3s-3.22-.08-4.82-.18a31.88,31.88,0,0,1-4.36-.55c-1.13-.27-2.24-.58-3.34-1-.66-.23-1.31-.51-2-.74s-1.3-.42-2-.6c-1.3-.34-2.61-.64-3.89-1.09a32.38,32.38,0,0,1-3.63-1.58c-.81-.43-1.62-.86-2.4-1.34a18,18,0,0,1-2.41-1.86,31.28,31.28,0,0,0-2.47-2c-.73-.53-1.44-1.08-2.18-1.61a21,21,0,0,0-3.39-1.92,8.1,8.1,0,0,0-1.33-.55,15.3,15.3,0,0,0-2.11-.47,6.71,6.71,0,0,0-1.1-.08,9.52,9.52,0,0,0-1.51.13m1.16,4.48a11.51,11.51,0,0,1,1.43.13,7.69,7.69,0,0,1,.93.29c.43.17.85.37,1.26.57a10.43,10.43,0,0,1,1.08.62c.5.34,1,.7,1.46,1.08.77.61,1.55,1.23,2.3,1.88s1.6,1.51,2.45,2.22a22.25,22.25,0,0,0,2.48,1.82,35.62,35.62,0,0,0,6.2,3.19c1,.37,2,.66,3.06,1a31.26,31.26,0,0,1,3,1c1,.39,1.95.81,3,1.15a27,27,0,0,0,2.8.78,30.48,30.48,0,0,0,4.56.72c1.44.1,2.88.17,4.32.23a60.68,60.68,0,0,1,8.09.76c1.12.28,2.24.56,3.37.8a28.81,28.81,0,0,0,3.46.49c1.08.1,2.17.15,3.25.2s2.21.1,3.31.1c1.32,0,2.64,0,4-.14.57,0,1.14-.1,1.71-.15a20.6,20.6,0,0,0,3.28-.62c1.35-.36,2.68-.75,4-1.21.46-.16.91-.35,1.37-.55a11.35,11.35,0,0,0,2.13-1.3,4.25,4.25,0,0,1,.56-.29,6.31,6.31,0,0,1,1-.15h.39a10.88,10.88,0,0,1-.17,1.26,6,6,0,0,1-.26.85c-.48.82-1,1.61-1.47,2.43s-1,1.87-1.61,2.77-1.2,1.83-1.81,2.73-1.09,1.73-1.62,2.61-1.11,1.91-1.67,2.87-1.1,1.82-1.63,2.75c-1.08,1.85-2.13,3.72-3.19,5.59a29.42,29.42,0,0,1-2.56,4q-1.47,1.83-3,3.58L84,176.3c-.68.76-1.3,1.55-1.93,2.34q-1.34,1.7-2.76,3.32c-1.28,1.42-2.63,2.76-4,4.06s-3.12,2.7-4.77,4-3,2.4-4.39,3.69A54.16,54.16,0,0,1,61,198.13a9.69,9.69,0,0,1-1.32.68,4.84,4.84,0,0,1-.64.13,2.6,2.6,0,0,1-.4,0c-.22-.06-.44-.14-.65-.22a9.2,9.2,0,0,1-.78-.57,7.88,7.88,0,0,1-.7-.83,10.66,10.66,0,0,1-.55-1.19,9.36,9.36,0,0,1-.23-1.5,10.26,10.26,0,0,1,1.11-5.08c.41-.89.86-1.77,1.27-2.66.76-1.63,1.46-4.07-.34-5.3a2.75,2.75,0,0,0-2.28-.36,8.59,8.59,0,0,0-1.31.49c-.38.18-.75.33-1.14.48a40.08,40.08,0,0,1-4.9,1c-1.62.25-3.25.42-4.89.53-1.17,0-2.34,0-3.52-.05a26.53,26.53,0,0,1-3.19-.42A32.11,32.11,0,0,1,30.84,181a12.85,12.85,0,0,1-1.52-1,6.37,6.37,0,0,1-.5-.55A16,16,0,0,1,30,177.9l-.36.41c1.42-1.6,2.73-3.29,4.11-4.93A11.92,11.92,0,0,1,35.53,172a20.45,20.45,0,0,1,4-2.07,9.2,9.2,0,0,1,1.73-.29l1.26-.09a6.2,6.2,0,0,0,1.58-.39,3.4,3.4,0,0,0,1.67-1.19,3.2,3.2,0,0,0,.54-1.49,2.64,2.64,0,0,0-.42-1.64,2.69,2.69,0,0,0-.55-.74l-.73-.64c-.17-.14-.36-.27-.53-.4l-1.79-1.34c-1.17-.88-2.33-1.76-3.47-2.69s-2.29-1.91-3.42-2.88l-1.67-1.57c-.62-.58-1.17-1.23-1.75-1.84s-1-1.17-1.51-1.76a41.59,41.59,0,0,1-2.75-3.59A25.74,25.74,0,0,1,25.4,143c-.34-.85-.67-1.71-1-2.57a23.34,23.34,0,0,1-.94-4c-.11-1-.18-1.93-.26-2.89a16,16,0,0,1,.05-3.25,9.94,9.94,0,0,1,.4-1.16l.15-.23.07,0a4,4,0,0,1,.5-.09m18.1,35.87a.18.18,0,0,1-.09.06l.09-.06M28.82,179.32l0,.07h0a.25.25,0,0,0,0-.07m-.05.09h0m0,0,.05.08a.22.22,0,0,1-.05-.08h0m-.2.39c0,.07,0,.14-.05.21s0-.14.05-.21M34.25,161l-.12-.11.12.11"/></g></g></svg>