<?xml version="1.0" standalone="no"?>
<!DOCTYPE svg PUBLIC "-//W3C//DTD SVG 20010904//EN"
 "http://www.w3.org/TR/2001/REC-SVG-20010904/DTD/svg10.dtd">
<svg version="1.0" xmlns="http://www.w3.org/2000/svg"
 width="700.000000pt" height="700.000000pt" viewBox="0 0 700.000000 700.000000"
 preserveAspectRatio="xMidYMid meet">
<metadata>
Created by potrace 1.11, written by Peter Selinger 2001-2013
</metadata>
<g transform="translate(0.000000,700.000000) scale(0.100000,-0.100000)"
fill="#000000" stroke="none">
<path d="M107 5732 c-14 -3 -12 -10 10 -50 14 -26 29 -51 33 -57 4 -5 153
-262 330 -570 389 -675 342 -594 430 -745 40 -69 84 -145 98 -169 14 -25 38
-68 55 -95 16 -28 40 -69 52 -91 20 -35 179 -311 225 -390 9 -16 61 -106 115
-200 54 -93 115 -199 137 -234 21 -34 38 -64 38 -66 0 -2 41 -74 92 -162 50
-87 156 -270 235 -408 79 -137 147 -257 152 -265 6 -8 42 -71 82 -140 40 -69
112 -193 160 -277 49 -83 97 -167 107 -185 88 -153 204 -353 207 -356 4 -4 22
27 233 393 79 138 194 337 256 443 61 106 116 200 121 210 6 10 37 65 70 122
33 58 64 113 70 122 5 10 35 61 66 115 31 54 86 149 122 211 61 103 65 112 44
113 -12 0 -44 1 -72 2 l-49 2 -48 80 c-26 44 -51 87 -54 95 -4 8 -64 112 -132
230 -69 118 -133 229 -142 245 -15 26 -294 510 -401 695 -21 36 -48 83 -62
105 -22 38 -241 416 -277 480 -58 103 -257 446 -276 477 -13 21 -24 40 -24 42
0 2 -27 50 -60 105 -33 56 -60 106 -60 111 0 6 -4 10 -10 10 -5 0 -10 6 -10
14 0 38 -1 38 -938 40 -500 0 -916 0 -925 -2z"/>
<path d="M2461 5732 c-13 -4 -3 -30 26 -68 13 -17 23 -33 23 -36 0 -5 71 -129
288 -503 41 -71 80 -139 86 -150 10 -18 226 -390 246 -425 5 -8 43 -73 84
-145 40 -71 83 -146 95 -165 11 -19 24 -42 28 -50 3 -8 14 -26 23 -40 10 -14
30 -47 44 -75 15 -27 36 -65 48 -84 23 -40 178 -309 526 -911 135 -234 274
-474 309 -533 34 -60 63 -110 63 -112 0 -2 22 -40 50 -85 28 -45 50 -84 50
-87 0 -3 15 -30 34 -61 33 -54 277 -475 300 -517 6 -11 62 -109 125 -218 l114
-197 22 32 c12 18 77 130 145 248 68 118 131 229 141 245 10 17 32 55 49 85
17 30 35 62 40 70 22 33 130 222 130 227 0 3 8 17 18 31 11 15 33 52 49 82 17
30 104 183 195 340 90 157 171 296 179 310 8 14 20 33 28 43 16 19 13 19 -90
19 l-45 -1 -180 311 c-98 171 -192 334 -208 362 -15 28 -47 83 -70 121 -24 39
-46 77 -49 85 -4 8 -17 31 -28 50 -12 19 -73 125 -136 235 -64 110 -123 211
-132 225 -8 14 -22 36 -29 50 -35 65 -54 97 -72 125 -11 17 -23 37 -27 45 -4
8 -38 69 -76 135 -39 66 -78 133 -87 150 -9 16 -99 172 -200 345 -100 173
-191 331 -202 350 -11 19 -33 59 -50 88 -17 29 -37 52 -46 52 -97 3 -1824 4
-1831 2z"/>
<path d="M5509 5729 c-5 -3 9 -38 32 -77 l41 -71 2 -463 1 -463 23 -40 c13
-22 34 -48 47 -58 20 -14 295 -172 505 -289 l45 -25 64 38 c35 22 65 39 67 39
2 0 61 33 131 73 71 41 155 89 188 107 90 49 123 77 147 123 20 41 21 52 21
502 l1 460 42 70 c23 38 41 71 40 72 -6 6 -1388 8 -1397 2z"/>
</g>
</svg>
